<svg id="Layer_1" enable-background="new 0 0 512 512" height="512" viewBox="0 0 512 512" width="512" xmlns="http://www.w3.org/2000/svg"><g><g><g id="XMLID_27_"><g><g id="XMLID_1976_"><g id="XMLID_1977_"><g id="XMLID_1978_"><g id="XMLID_1980_"><g id="XMLID_1981_"><g id="XMLID_1983_"><g id="XMLID_1984_"><g id="XMLID_1985_"><g id="XMLID_1986_"><g id="XMLID_2015_"><g id="XMLID_2016_"><g id="XMLID_2017_"><g id="XMLID_2019_"><g id="XMLID_2031_"><circle cx="256" cy="256" fill="#00337a" r="256"/></g></g></g></g></g></g></g></g></g></g></g></g></g></g></g></g></g><g><path d="m512 256c0-8.086-.393-16.079-1.126-23.973l-117.548-117.548s-294.122-60.853-258.179 279.788l117.693 117.693c1.053.013 2.104.04 3.16.04 141.385 0 256-114.615 256-256z" fill="#002659"/><path d="m222.765 256c0-78.696 68.382-142.492 152.735-142.492 6.031 0 11.977.337 17.826.971-33.73-30.367-78.367-48.854-127.326-48.854-105.141 0-190.375 85.234-190.375 190.375s85.234 190.375 190.375 190.375c48.959 0 93.596-18.488 127.326-48.854-5.849.634-11.795.971-17.826.971-84.353 0-152.735-63.796-152.735-142.492z" fill="#fff4c5"/><g fill="#ffea92"><path d="m375.5 398.49c6.03 0 11.98-.33 17.83-.97-33.73 30.37-78.37 48.86-127.33 48.86-3.35 0-6.69-.09-10-.26v-101.37c27.98 32.75 71.12 53.74 119.5 53.74z"/><path d="m256 167.25v-101.37c3.31-.17 6.65-.26 10-.26 48.96 0 93.6 18.49 127.33 48.86-5.85-.64-11.8-.97-17.83-.97-48.38 0-91.52 20.99-119.5 53.74z"/></g></g></g></svg>