<svg id="Layer_1" enable-background="new 0 0 512 512" height="512" viewBox="0 0 512 512" width="512" xmlns="http://www.w3.org/2000/svg"><g><g id="XMLID_31_"><g><g id="XMLID_1100_"><g id="XMLID_1101_"><g id="XMLID_1102_"><g id="XMLID_1103_"><g id="XMLID_1104_"><g id="XMLID_1105_"><g id="XMLID_1106_"><g id="XMLID_1107_"><g id="XMLID_1108_"><g id="XMLID_1109_"><g id="XMLID_1307_"><g id="XMLID_1371_"><g id="XMLID_1618_"><g id="XMLID_1740_"><circle cx="256" cy="256" fill="#00337a" r="256"/></g></g></g></g></g></g></g></g></g></g></g></g></g></g></g></g><path d="m512 256c0-20.244-2.36-39.935-6.802-58.824l-95.187-95.187-62.511 26.011-91.5-89.804-13 142.804-204.805 75 109.055 107.75-45.262 46.261 95.187 95.187c18.89 4.442 38.581 6.802 58.825 6.802 141.385 0 256-114.615 256-256z" fill="#002659"/><path d="m473.807 256-1.329-.85c-27.749-17.747-35.238-54.974-16.509-82.07l.897-1.298c-32.648-5.671-53.968-37.43-46.853-69.794-33.012 7.258-65.458-14.321-71.529-47.571-27.095 19.075-64.628 11.694-82.481-16.222l-.85 1.329c-17.747 27.749-54.974 35.238-82.07 16.509l-1.298-.897c-5.671 32.647-37.43 53.968-69.793 46.853l.339 1.54c7.073 32.17-13.956 63.789-46.359 69.706l-1.552.283c19.075 27.096 11.694 64.629-16.222 82.482l1.329.85c27.749 17.747 35.237 54.974 16.509 82.07l-.897 1.298c32.648 5.671 53.968 37.43 46.853 69.794l1.54-.339c32.17-7.073 63.789 13.956 69.706 46.359l.283 1.552c27.095-19.076 64.628-11.694 82.481 16.222l.85-1.329c17.747-27.749 54.974-35.237 82.07-16.509l1.298.897c5.671-32.647 37.43-53.968 69.794-46.853l-.339-1.541c-7.073-32.17 13.956-63.789 46.359-69.706l1.552-.283c-19.077-27.096-11.695-64.629 16.221-82.482z" fill="#ffb522"/><path d="m446.98 305.06c0 11.55 3.43 23.22 10.61 33.42l-1.56.28c-32.4 5.92-53.43 37.54-46.36 69.71l.34 1.54c-4.21-.93-8.41-1.37-12.55-1.37-27.63 0-52.31 19.83-57.24 48.22l-1.3-.89c-27.09-18.73-64.32-11.24-82.07 16.51l-.85 1.32v-435.6c11.14 17.41 29.93 26.83 49.06 26.83 11.55 0 23.22-3.43 33.42-10.61 5.28 28.9 30.47 48.98 58.65 48.98 4.24 0 8.56-.46 12.88-1.41-.93 4.21-1.37 8.41-1.37 12.55 0 27.63 19.83 52.31 48.23 57.24l-.9 1.3c-18.73 27.1-11.24 64.32 16.51 82.07l1.33.85c-17.41 11.13-26.83 29.92-26.83 49.06z" fill="#fd9827"/><g><g><g id="XMLID_66_"><g><g id="XMLID_1111_"><g id="XMLID_1112_"><g id="XMLID_1113_"><g id="XMLID_1160_"><g id="XMLID_1170_"><g id="XMLID_1171_"><g id="XMLID_1282_"><g id="XMLID_1283_"><g id="XMLID_1506_"><g id="XMLID_1586_"><g id="XMLID_1587_"><g id="XMLID_1588_"><g id="XMLID_1589_"><g id="XMLID_1590_"><circle cx="256" cy="256" fill="#ffe05f" r="152.665"/></g></g></g></g></g></g></g></g></g></g></g></g></g></g></g></g><g id="XMLID_70_"><g><g id="XMLID_1284_"><g id="XMLID_1285_"><g id="XMLID_1286_"><g id="XMLID_1287_"><g id="XMLID_1288_"><g id="XMLID_1289_"><g id="XMLID_1304_"><g id="XMLID_1305_"><g id="XMLID_1306_"><g id="XMLID_1474_"><g id="XMLID_1476_"><g id="XMLID_1482_"><g id="XMLID_1489_"><g><path d="m408.67 256c0 68.2-44.74 125.97-106.46 145.55-14.58 4.63-30.1 7.12-46.21 7.12v-305.34c16.11 0 31.63 2.49 46.21 7.12 61.72 19.58 106.46 77.35 106.46 145.55z" fill="#f9cb0d"/></g></g></g></g></g></g></g></g></g></g></g></g></g></g></g></g></g></g></g></svg>