<svg width="36" height="36" viewBox="0 0 36 36" fill="none" xmlns="http://www.w3.org/2000/svg">
    <path
        d="M0.5 17.66C0.5 8.18283 8.18282 0.5 17.6601 0.5C27.1373 0.5 34.82 8.18283 34.82 17.66C34.82 27.1373 27.1373 34.8202 17.6601 34.8202C8.18283 34.8202 0.5 27.1373 0.5 17.66ZM17.6601 2.03321C9.02959 2.03321 2.0332 9.0296 2.0332 17.66C2.0332 26.2904 9.02958 33.287 17.6601 33.287C26.2905 33.287 33.2868 26.2904 33.2868 17.66C33.2868 9.0296 26.2905 2.03321 17.6601 2.03321ZM8.82749 17.6608C8.82749 17.2006 9.20056 16.8275 9.66076 16.8275H25.6599C26.1202 16.8275 26.4932 17.2006 26.4932 17.6608C26.4932 18.121 26.1202 18.4941 25.6599 18.4941H9.66076C9.20056 18.4941 8.82749 18.121 8.82749 17.6608Z"
        fill="black" stroke="black" />
</svg>