<svg width="36" height="36" viewBox="0 0 36 36" fill="none" xmlns="http://www.w3.org/2000/svg">
<path d="M18.4945 16.3283V16.8283H18.9945H25.6611C26.1215 16.8283 26.4945 17.2014 26.4945 17.6616C26.4945 18.1219 26.1215 18.495 25.6611 18.495H18.9945H18.4945V18.995V25.6616C18.4945 26.1218 18.1214 26.495 17.6612 26.495C17.201 26.495 16.8279 26.1218 16.8279 25.6616V18.995V18.495H16.3279H9.66121C9.20098 18.495 8.82788 18.1219 8.82788 17.6616C8.82788 17.2014 9.20098 16.8283 9.66121 16.8283H16.3279H16.8279V16.3283V9.66162C16.8279 9.20139 17.201 8.82829 17.6612 8.82829C18.1214 8.82829 18.4945 9.20139 18.4945 9.66162V16.3283ZM0.5 17.6609C0.5 8.1832 8.18319 0.5 17.6609 0.5C27.1386 0.5 34.8217 8.1832 34.8217 17.6609C34.8217 27.1386 27.1386 34.8219 17.6609 34.8219C8.1832 34.8219 0.5 27.1386 0.5 17.6609ZM17.6609 2.03333C9.03003 2.03333 2.03332 9.03004 2.03332 17.6609C2.03332 26.2916 9.03002 33.2886 17.6609 33.2886C26.2917 33.2886 33.2883 26.2916 33.2883 17.6609C33.2883 9.03004 26.2917 2.03333 17.6609 2.03333Z" fill="black" stroke="black"/>
</svg>
