<svg width="81" height="29" viewBox="0 0 81 29" fill="none" xmlns="http://www.w3.org/2000/svg">
<path d="M0 0V22.5048L2.9024 22.5159V11.7994H9.87933V8.96396H2.89124V2.82426H11.9892V0H0ZM17.1912 4.57687C17.6945 4.57687 18.1772 4.37693 18.5331 4.02104C18.8889 3.66514 19.0889 3.18245 19.0889 2.67914C19.0889 2.17583 18.8889 1.69314 18.5331 1.33725C18.1772 0.981354 17.6945 0.781416 17.1912 0.781416C16.6878 0.781416 16.2052 0.981354 15.8493 1.33725C15.4934 1.69314 15.2934 2.17583 15.2934 2.67914C15.2934 3.18245 15.4934 3.66514 15.8493 4.02104C16.2052 4.37693 16.6878 4.57687 17.1912 4.57687ZM15.7288 7.40113V22.5159H18.6312V7.40113H15.7288Z" fill="black"/>
<path fill-rule="evenodd" clip-rule="evenodd" d="M29.3601 6.96558C25.52 6.96558 22.8408 10.214 22.8408 14.0765C22.8408 17.9389 25.52 21.1874 29.3601 21.1874C31.1238 21.1874 32.575 20.5176 33.6355 19.4013V21.4106C33.6429 22.011 33.5312 22.6069 33.3069 23.1638C33.0826 23.7208 32.7501 24.2278 32.3286 24.6554C31.9072 25.0831 31.4051 25.423 30.8515 25.6555C30.2979 25.8879 29.7037 26.0084 29.1033 26.0098C28.1768 26.0098 27.2614 25.6526 26.5358 25.1391L25.0846 27.6508C26.2067 28.3761 27.5038 28.7852 28.8391 28.8347C30.1743 28.8843 31.4982 28.5726 32.671 27.9324C33.8438 27.2923 34.8222 26.3475 35.5028 25.1976C36.1833 24.0478 36.541 22.7356 36.5379 21.3994V7.4121H33.6355V8.76283C32.575 7.64652 31.1238 6.97674 29.3601 6.97674V6.96558ZM25.7321 14.0765C25.7321 11.6764 27.5628 9.78984 29.6838 9.78984C31.8048 9.78984 33.6244 11.6876 33.6244 14.0765C33.6244 16.4765 31.7936 18.3519 29.6838 18.3519C27.5628 18.3519 25.7321 16.4765 25.7321 14.0765Z" fill="black"/>
<path d="M46.9628 9.78996C46.1327 9.80463 45.3417 10.1455 44.761 10.7387C44.1802 11.332 43.8564 12.1301 43.8594 12.9603V22.5159H40.957V7.40106H43.8594V8.78528C44.2937 8.20976 44.8577 7.74497 45.5057 7.42877C46.1536 7.11256 46.867 6.9539 47.5879 6.9657C49.6196 6.9657 51.1824 7.97038 52.0755 9.51089C52.5737 8.73862 53.2556 8.10191 54.0601 7.65774C54.8647 7.21358 55.7668 6.9758 56.6858 6.9657C59.9789 6.9657 62.0441 9.62252 62.0441 12.9156V22.5159H59.164V12.9491C59.1671 12.1189 58.8432 11.3209 58.2625 10.7276C57.6817 10.1343 56.8908 9.79346 56.0607 9.7788C55.2306 9.79346 54.4397 10.1343 53.8589 10.7276C53.2782 11.3209 52.9543 12.1189 52.9574 12.9491V22.5047H50.0549V12.9491C50.0581 12.1208 49.7357 11.3244 49.1574 10.7314C48.579 10.1385 47.7909 9.79636 46.9628 9.7788V9.78996Z" fill="black"/>
<path fill-rule="evenodd" clip-rule="evenodd" d="M77.4828 9.11999C76.8238 8.43274 76.0314 7.8872 75.1542 7.51675C74.277 7.1463 73.3335 6.95873 72.3813 6.96551C68.0724 6.96551 65.0137 10.6047 65.0137 14.9583C65.0137 19.3119 68.0724 22.9511 72.3813 22.9511C73.3332 22.9559 74.2762 22.7674 75.1531 22.3971C76.03 22.0268 76.8226 21.4823 77.4828 20.7966V22.5157H80.3741V7.40087H77.4717V9.11999H77.4828ZM67.9049 14.9583C67.9049 12.0782 70.1152 9.78977 72.6939 9.78977C75.2614 9.78977 77.4828 12.0782 77.4828 14.9583C77.4828 17.8384 75.2726 20.1156 72.6939 20.1156C70.1264 20.1156 67.9049 17.8384 67.9049 14.9583Z" fill="black"/>
</svg>
