<svg width="146" height="42" viewBox="0 0 146 42" fill="none" xmlns="http://www.w3.org/2000/svg">
<path d="M1.00913 26.9678L5.09258 0.800829C5.23339 -0.0909596 6.43027 -0.302173 6.85269 0.495743L11.2412 8.70959L1.00913 26.9678ZM30.0392 33.3277L26.1435 9.22589C26.0261 8.47491 25.0874 8.16982 24.5477 8.70959L0 33.3277L13.588 40.9548C14.4329 41.4242 15.489 41.4242 16.3338 40.9548L30.0392 33.3277ZM19.0092 12.3002L15.8645 6.31584C15.5124 5.63526 14.5502 5.63526 14.1982 6.31584L0.37549 30.9574L19.0092 12.3002Z" fill="black"/>
<path d="M45.0593 32.3882H42.29V10.8914H54.8455V13.5433H45.0593V20.6072H53.9068V23.1887H45.0827V32.3882H45.0593Z" fill="black"/>
<path d="M59.6147 13.9902C59.2392 14.3657 58.7698 14.5534 58.2301 14.5534C57.6903 14.5534 57.221 14.3657 56.8455 13.9902C56.47 13.6147 56.2822 13.1453 56.2822 12.6056C56.2822 12.0658 56.47 11.5964 56.8455 11.221C57.221 10.8455 57.6903 10.6577 58.2301 10.6577C58.7698 10.6577 59.2392 10.8455 59.6147 11.221C59.9902 11.5964 60.1779 12.0658 60.1779 12.6056C60.1779 13.1453 59.9902 13.5912 59.6147 13.9902ZM59.6147 32.3892H56.8455V17.6747H59.6147V32.3892Z" fill="black"/>
<path d="M65.3825 32.3883H62.6133V17.6738H65.2652V20.0675H65.3825C65.6641 19.2696 66.2274 18.6125 67.1192 18.0962C67.9875 17.5799 68.8323 17.3218 69.6537 17.3218C70.4751 17.3218 71.1557 17.4391 71.7189 17.6738L70.6628 20.2553C70.3108 20.1145 69.818 20.0441 69.1844 20.0441C68.1752 20.0441 67.3069 20.443 66.5325 21.241C65.758 22.0389 65.3825 23.0715 65.3825 24.3387V32.3883Z" fill="black"/>
<path d="M78.3848 32.8811C76.1553 32.8811 74.3483 32.1301 72.9637 30.6516C71.579 29.1731 70.875 27.2957 70.875 25.0427C70.875 22.9071 71.5556 21.0532 72.8933 19.5043C74.2544 17.9554 75.9676 17.1809 78.0797 17.1809C80.2623 17.1809 81.9989 17.885 83.3131 19.3165C84.6273 20.7481 85.2844 22.649 85.2844 25.0193L85.261 25.5356H73.6442C73.7146 27.0141 74.2309 28.1875 75.1227 29.0558C76.038 29.9241 77.0941 30.3465 78.3144 30.3465C80.2857 30.3465 81.6469 29.5017 82.3509 27.812L84.8151 28.8446C84.3457 29.9945 83.5478 30.9332 82.4448 31.7077C81.3418 32.4821 79.9806 32.8811 78.3848 32.8811ZM82.3509 23.2592C82.2805 22.4143 81.905 21.6164 81.201 20.8654C80.4969 20.1144 79.4409 19.7155 78.0328 19.7155C77.0002 19.7155 76.1319 20.044 75.3809 20.6777C74.6299 21.3113 74.1136 22.1796 73.832 23.2592H82.3509Z" fill="black"/>
<path d="M95.0024 32.881C93.8759 32.881 92.8668 32.6463 91.975 32.1535C91.0832 31.6841 90.4261 31.074 89.9802 30.3464H89.8628V32.3882H87.2109V10.8914H89.9802V17.6736L89.8628 19.7154H89.9802C90.4261 18.9879 91.0832 18.4012 91.975 17.9083C92.8668 17.439 93.8759 17.1808 95.0024 17.1808C96.9033 17.1808 98.546 17.9318 99.9307 19.4338C101.315 20.9357 101.996 22.7897 101.996 25.0192C101.996 27.2486 101.315 29.1026 99.9307 30.6046C98.546 32.13 96.9033 32.881 95.0024 32.881ZM94.533 30.3464C95.8237 30.3464 96.9267 29.8536 97.842 28.8914C98.7573 27.9292 99.2266 26.6385 99.2266 25.0426C99.2266 23.4468 98.7573 22.1561 97.842 21.1939C96.9267 20.2317 95.8237 19.7388 94.533 19.7388C93.2422 19.7388 92.1158 20.2082 91.224 21.1704C90.3322 22.1326 89.8628 23.4233 89.8628 25.0426C89.8628 26.6619 90.3087 27.9527 91.224 28.9149C92.1392 29.8771 93.2422 30.3464 94.533 30.3464Z" fill="black"/>
<path d="M108.871 32.8811C107.299 32.8811 106.008 32.4352 104.952 31.5199C103.896 30.6281 103.38 29.4313 103.38 27.9528C103.38 26.3569 103.99 25.0897 105.234 24.1744C106.478 23.2592 108.003 22.8133 109.834 22.8133C111.453 22.8133 112.791 23.1183 113.823 23.705V23.2826C113.823 22.2031 113.448 21.3348 112.72 20.6777C111.969 20.0206 111.077 19.692 109.998 19.692C109.2 19.692 108.472 19.8797 107.815 20.2552C107.158 20.6307 106.712 21.147 106.478 21.8276L103.943 20.7481C104.295 19.8563 104.952 19.0584 105.961 18.3074C106.971 17.5564 108.285 17.1809 109.927 17.1809C111.805 17.1809 113.377 17.7207 114.621 18.8237C115.865 19.9267 116.475 21.4756 116.475 23.4704V32.3883H113.823V30.3465H113.706C112.603 32.0362 110.984 32.8811 108.871 32.8811ZM109.317 30.3465C110.467 30.3465 111.5 29.9241 112.415 29.0792C113.354 28.2344 113.823 27.2253 113.823 26.0519C113.049 25.4182 111.875 25.0897 110.303 25.0897C108.965 25.0897 107.956 25.3713 107.276 25.958C106.595 26.5447 106.243 27.2253 106.243 27.9997C106.243 28.7272 106.548 29.2905 107.182 29.7129C107.815 30.1353 108.519 30.3465 109.317 30.3465Z" fill="black"/>
<path d="M124.152 32.8818C122.509 32.8818 121.148 32.4828 120.092 31.6849C119.012 30.887 118.238 29.8779 117.745 28.681L120.209 27.6484C120.984 29.5024 122.321 30.4176 124.199 30.4176C125.067 30.4176 125.771 30.2299 126.311 29.8544C126.851 29.4789 127.132 28.9626 127.132 28.3524C127.132 27.3902 126.452 26.7331 125.114 26.4046L122.134 25.6771C121.195 25.4424 120.303 24.973 119.458 24.3159C118.613 23.6353 118.191 22.7436 118.191 21.5936C118.191 20.3029 118.778 19.2468 119.928 18.4254C121.078 17.604 122.439 17.2051 124.035 17.2051C125.325 17.2051 126.499 17.5102 127.508 18.0969C128.54 18.6836 129.268 19.5284 129.69 20.6314L127.297 21.6171C126.757 20.3263 125.63 19.6692 123.941 19.6692C123.119 19.6692 122.439 19.8335 121.876 20.1855C121.312 20.5376 121.031 20.9834 121.031 21.5701C121.031 22.415 121.688 22.9782 122.979 23.2833L125.889 23.9639C127.273 24.2925 128.282 24.8322 128.963 25.6067C129.62 26.3811 129.949 27.2729 129.949 28.2586C129.949 29.5728 129.409 30.6758 128.329 31.5676C127.25 32.4594 125.865 32.8818 124.152 32.8818Z" fill="black"/>
<path d="M138.58 32.8811C136.351 32.8811 134.544 32.1301 133.159 30.6516C131.774 29.1731 131.07 27.2957 131.07 25.0427C131.07 22.9071 131.751 21.0532 133.089 19.5043C134.45 17.9554 136.163 17.1809 138.275 17.1809C140.458 17.1809 142.194 17.885 143.508 19.3165C144.823 20.7481 145.48 22.649 145.48 25.0193L145.456 25.5356H133.84C133.91 27.0141 134.426 28.1875 135.318 29.0558C136.233 29.9241 137.289 30.3465 138.51 30.3465C140.481 30.3465 141.842 29.5017 142.546 27.812L145.01 28.8446C144.541 29.9945 143.743 30.9332 142.64 31.7077C141.537 32.4821 140.176 32.8811 138.58 32.8811ZM142.546 23.2592C142.476 22.4143 142.1 21.6164 141.396 20.8654C140.692 20.1144 139.636 19.7155 138.228 19.7155C137.195 19.7155 136.327 20.044 135.576 20.6777C134.825 21.3113 134.309 22.1796 134.027 23.2592H142.546Z" fill="black"/>
</svg>
