<svg width="103" height="21" viewBox="0 0 103 21" fill="none" xmlns="http://www.w3.org/2000/svg">
<path d="M86.0152 0.00860607V3.3048H78.9309V20.6456H75.3885V3.3048H68.1567V0.00860607H86.0152ZM86.8114 18.6796C87.061 18.6796 87.2793 18.7695 87.4641 18.9492C87.6514 19.129 87.7449 19.3442 87.7475 19.5949C87.7449 19.7652 87.7017 19.9212 87.6153 20.0608C87.5265 20.2027 87.4139 20.3139 87.272 20.3943C87.1328 20.477 86.9793 20.5196 86.8114 20.5196C86.552 20.5196 86.3313 20.4297 86.1466 20.25C85.9618 20.0703 85.8705 19.8527 85.8728 19.5949C85.8705 19.3442 85.9618 19.129 86.1466 18.9492C86.3313 18.7695 86.552 18.6796 86.8114 18.6796ZM16.6038 20.6456L3.54215 4.41116V20.637H0V0H4.42768L20.9293 20.4911L20.9296 3.3048L20.9281 0.00860607H38.7864V3.3048H24.4717V8.60737H35.9836V11.9036H24.4717V17.3495H38.7864V20.6456H16.6038ZM50.1391 11.872L52.4605 14.7584L47.7037 20.67H43.0548L50.1391 11.872ZM47.7037 0.0172132L53.6971 7.46045L59.6717 0.0401219L64.3076 0.032958L56.018 10.3428L64.3208 20.6543H59.6717L43.0681 0.0172132H47.7037ZM92.8572 11.8258H94.4268V17.8731C94.4245 18.4289 94.3042 18.9043 94.0693 19.304C93.8317 19.7037 93.5028 20.0087 93.0804 20.224C92.6604 20.4368 92.1684 20.5456 91.6091 20.5456C91.0978 20.5456 90.6396 20.4534 90.2315 20.2736C89.8235 20.0939 89.4995 19.8243 89.2619 19.4695C89.0218 19.1148 88.9041 18.6725 88.9041 18.1428H90.4764C90.4787 18.3745 90.5316 18.5755 90.6323 18.7435C90.733 18.9114 90.8722 19.0391 91.0499 19.1289C91.2297 19.2188 91.4364 19.2638 91.669 19.2638C91.9212 19.2638 92.1371 19.2117 92.3123 19.1053C92.4874 19.0012 92.6219 18.8451 92.7156 18.637C92.8067 18.4313 92.8548 18.1759 92.8572 17.8731V11.8258ZM100.885 14.1908C100.847 13.8242 100.679 13.5381 100.386 13.3347C100.091 13.1289 99.7093 13.0272 99.2412 13.0272C98.9125 13.0272 98.6294 13.0769 98.3941 13.1739C98.1589 13.2732 97.9765 13.4056 97.8516 13.5736C97.7269 13.7415 97.6645 13.933 97.6595 14.1483C97.6595 14.328 97.7027 14.4841 97.7868 14.6142C97.8708 14.7466 97.9835 14.8578 98.13 14.9476C98.2739 15.0399 98.4347 15.1155 98.6101 15.177C98.7876 15.2385 98.9653 15.2906 99.1428 15.3331L99.9612 15.5342C100.29 15.6098 100.609 15.7115 100.914 15.8416C101.219 15.9693 101.495 16.1325 101.737 16.3288C101.98 16.5251 102.172 16.7616 102.313 17.0383C102.455 17.315 102.527 17.639 102.527 18.0127C102.527 18.5164 102.397 18.9587 102.136 19.3418C101.874 19.7226 101.497 20.0206 101.003 20.2358C100.511 20.4487 99.9156 20.5574 99.2149 20.5574C98.538 20.5574 97.9476 20.4534 97.4508 20.2453C96.9517 20.0395 96.5627 19.7368 96.2819 19.3394C96.0011 18.9421 95.85 18.4573 95.8284 17.8873H97.3837C97.4053 18.1853 97.5013 18.4337 97.6645 18.6347C97.83 18.8333 98.046 18.98 98.3101 19.0793C98.5765 19.1763 98.874 19.2259 99.2029 19.2259C99.5461 19.2259 99.8485 19.1739 100.11 19.0722C100.369 18.9705 100.573 18.8286 100.72 18.6442C100.869 18.462 100.943 18.2468 100.945 18.0009C100.943 17.7762 100.876 17.5893 100.746 17.4427C100.614 17.2961 100.432 17.1731 100.199 17.0738C99.9638 16.9745 99.69 16.8846 99.378 16.8065L98.3845 16.5558C97.6668 16.3737 97.098 16.097 96.6827 15.7257C96.2653 15.3544 96.0587 14.8625 96.0587 14.2452C96.0587 13.7391 96.1979 13.2945 96.4789 12.9137C96.7571 12.533 97.1388 12.2373 97.6213 12.0269C98.1061 11.814 98.6533 11.7099 99.2627 11.7099C99.8821 11.7099 100.424 11.814 100.893 12.0269C101.36 12.2373 101.728 12.5306 101.994 12.9043C102.26 13.2779 102.4 13.706 102.407 14.1908H100.885Z" fill="black"/>
</svg>
