<svg width="45" height="50" viewBox="0 0 45 50" fill="none" xmlns="http://www.w3.org/2000/svg">
<path fill-rule="evenodd" clip-rule="evenodd" d="M27.8313 35.4316C19.8191 35.4316 18.1394 31.7712 18.1394 28.668C18.1394 28.5277 18.1951 28.3932 18.2942 28.2941C18.3934 28.1949 18.5279 28.1392 18.6681 28.1392H21.0351C21.161 28.1397 21.2825 28.185 21.3779 28.267C21.4733 28.349 21.5364 28.4623 21.5557 28.5866C21.9136 30.9984 22.9752 32.2145 27.8232 32.2145C31.6829 32.2145 33.3219 31.3319 33.3219 29.2984C33.3219 28.1189 32.8542 27.2648 26.8593 26.6588C21.8445 26.1626 18.725 25.0604 18.725 21.0462C18.725 17.3532 21.8404 15.1529 27.0626 15.1529C32.9274 15.1529 35.8313 17.1865 36.1974 21.5627C36.2033 21.6367 36.1936 21.7111 36.1691 21.7811C36.1446 21.8511 36.1057 21.9153 36.055 21.9694C36.0027 22.0245 35.9396 22.0681 35.8696 22.0975C35.7996 22.1269 35.7242 22.1414 35.6483 22.1402H33.3097C33.1908 22.1405 33.0754 22.1004 32.9823 22.0265C32.8892 21.9526 32.824 21.8493 32.7972 21.7335C32.2238 19.1997 30.841 18.3863 27.0748 18.3863C22.8613 18.3781 22.3692 19.8464 22.3692 20.9445C22.3692 22.2785 22.9467 22.669 28.6325 23.4214C34.3183 24.1738 36.9376 25.2312 36.9376 29.1804C36.9376 33.1296 33.6107 35.456 27.8069 35.456L27.8313 35.4316ZM22.1739 49.9919C21.5002 49.9923 20.8382 49.8155 20.2543 49.4794L14.1536 45.8597C13.2385 45.3472 13.6859 45.1683 13.9868 45.0462C14.9571 44.7414 15.886 44.3179 16.7525 43.7854C16.8248 43.7515 16.9047 43.7366 16.9845 43.7423C17.0642 43.748 17.1412 43.7741 17.208 43.818L21.9055 46.604C21.9934 46.6499 22.091 46.6739 22.1902 46.6739C22.2894 46.6739 22.387 46.6499 22.4749 46.604L40.7769 36.0294C40.8626 35.9781 40.9335 35.9054 40.9827 35.8184C41.0319 35.7314 41.0577 35.6332 41.0576 35.5333V14.4249C41.0579 14.3234 41.0318 14.2235 40.9819 14.1351C40.932 14.0467 40.86 13.9728 40.7729 13.9206L22.4708 3.34608C22.385 3.29606 22.2875 3.26971 22.1882 3.26971C22.0888 3.26971 21.9913 3.29606 21.9055 3.34608L3.60347 13.9206C3.51566 13.9713 3.44275 14.0442 3.39206 14.132C3.34137 14.2198 3.31469 14.3194 3.31471 14.4208V35.5699C3.31447 35.6697 3.34068 35.7679 3.39069 35.8543C3.4407 35.9408 3.51271 36.0124 3.59941 36.062L8.61416 38.9578C11.3269 40.304 13.0148 38.6975 13.0148 37.0869V16.2266C13.0142 16.1567 13.0277 16.0874 13.0543 16.0227C13.0809 15.9581 13.1202 15.8994 13.1699 15.8501C13.2195 15.8008 13.2785 15.762 13.3434 15.7359C13.4082 15.7097 13.4777 15.6968 13.5476 15.6979H15.8618C15.9313 15.6974 16.0003 15.7107 16.0647 15.7371C16.1291 15.7634 16.1876 15.8024 16.2368 15.8516C16.286 15.9008 16.325 15.9593 16.3513 16.0237C16.3777 16.0881 16.391 16.1571 16.3905 16.2266V37.095C16.3905 40.727 14.4098 42.789 10.969 42.789C9.91157 42.789 9.07375 42.789 6.74735 41.6421L1.91969 38.8927C1.3359 38.5523 0.851469 38.0649 0.514657 37.4791C0.177846 36.8932 0.000404147 36.2294 6.50975e-06 35.5536L6.50974e-06 14.4046C-0.00123636 13.7285 0.175512 13.064 0.512487 12.4778C0.849461 11.8917 1.33479 11.4046 1.91969 11.0655L20.2502 0.490962C20.8409 0.168806 21.5031 0 22.176 0C22.8489 0 23.511 0.168806 24.1017 0.490962L42.4038 11.0655C42.9926 11.4059 43.4811 11.8959 43.8196 12.4859C44.1581 13.0758 44.3348 13.7447 44.3316 14.4249V35.5739C44.33 36.2495 44.152 36.9129 43.8153 37.4985C43.4786 38.0841 42.9949 38.5717 42.4119 38.913L24.1099 49.4875C23.5232 49.8242 22.8584 50.0009 22.1821 50L22.1739 49.9919Z" fill="black"/>
</svg>
