<svg width="120" height="41" viewBox="0 0 120 41" fill="none" xmlns="http://www.w3.org/2000/svg">
<path d="M22.6477 24.1501C24.8779 24.1501 26.6859 22.3422 26.6859 20.1119C26.6859 17.8816 24.8779 16.0737 22.6477 16.0737C20.4174 16.0737 18.6094 17.8816 18.6094 20.1119C18.6094 22.3422 20.4174 24.1501 22.6477 24.1501Z" fill="#151515"/>
<path fill-rule="evenodd" clip-rule="evenodd" d="M22.6459 11.9019C28.0677 11.9019 33.1043 12.6798 36.902 13.9872C41.4777 15.5626 44.2908 17.9502 44.2908 20.1124C44.2908 22.3653 41.3093 24.9019 36.3958 26.5299C32.681 27.7607 27.7925 28.4033 22.6459 28.4033C17.3691 28.4033 12.3723 27.8003 8.61561 26.5165C3.86271 24.892 1 22.3225 1 20.1124C1 17.9677 3.68611 15.5984 8.19744 14.0256C12.0092 12.6967 17.1704 11.9019 22.6451 11.9019H22.6459Z" stroke="#151515" stroke-width="1.47797"/>
<path fill-rule="evenodd" clip-rule="evenodd" d="M15.5015 16.0302C18.21 11.3335 21.4001 7.35906 24.4299 4.72238C28.0804 1.54558 31.5543 0.301458 33.4271 1.38146C35.379 2.50701 36.0869 6.35715 35.0424 11.4268C34.2536 15.2598 32.3673 19.8154 29.7962 24.2738C27.1599 28.845 24.1413 32.8722 21.1528 35.4845C17.3712 38.7903 13.7151 39.9865 11.8006 38.8824C9.94277 37.8118 9.23231 34.3006 10.1236 29.6067C10.8766 25.6408 12.7663 20.7728 15.5006 16.0301L15.5015 16.0302Z" stroke="#151515" stroke-width="1.47797"/>
<path fill-rule="evenodd" clip-rule="evenodd" d="M15.5066 24.2864C12.7905 19.5951 10.941 14.8454 10.1691 10.9038C9.2399 6.1546 9.89689 2.52348 11.7682 1.44034C13.718 0.311484 17.4072 1.62097 21.2776 5.05778C24.2041 7.65614 27.2092 11.5648 29.7878 16.0189C32.4316 20.5857 34.413 25.2122 35.1838 29.106C36.1592 34.0332 35.3698 37.7981 33.457 38.9054C31.6011 39.9798 28.2047 38.8424 24.5832 35.7258C21.5234 33.0929 18.2499 29.0244 15.5066 24.2864Z" stroke="#151515" stroke-width="1.47797"/>
<path fill-rule="evenodd" clip-rule="evenodd" d="M67.4679 30.4289L62.5183 22.951C65.0199 22.7302 67.2738 20.9178 67.2738 17.6064C67.2738 14.237 64.8827 12.0806 61.5284 12.0806H54.1621V30.415H56.4441V23.13H60.1004L64.7735 30.415L67.4679 30.4289ZM61.2554 21.1374H56.4452V14.1278H61.2554C63.4281 14.1278 64.9118 15.5568 64.9118 17.6192C64.9118 19.6815 63.4269 21.1398 61.2554 21.1398V21.1374ZM75.9623 30.7577C78.135 30.7577 79.9209 30.0431 81.2407 28.7244L80.2508 27.3766C79.2051 28.4491 77.6668 29.0532 76.1553 29.0532C73.297 29.0532 71.5367 26.9642 71.3718 24.4639H82.1191V23.941C82.1191 19.9558 79.7546 16.8211 75.7404 16.8211C71.9469 16.8211 69.1991 19.9278 69.1991 23.7759C69.1991 27.9273 72.0305 30.7473 75.9611 30.7473L75.9623 30.7577ZM80.087 22.9498H71.3729C71.4834 20.9166 72.8834 18.5232 75.7161 18.5232C78.7404 18.5232 80.0591 20.9701 80.087 22.9498ZM95.8118 30.4277V21.3012C95.8118 18.0852 93.4764 16.8199 90.6717 16.8199C88.4989 16.8199 86.7956 17.5344 85.3666 19.0192L86.3286 20.4484C87.5102 19.1843 88.8033 18.6068 90.3975 18.6068C92.3216 18.6068 93.7518 19.6235 93.7518 21.4105V23.8016C92.6793 22.5641 91.1678 21.9868 89.353 21.9868C87.0989 21.9868 84.7054 23.389 84.7054 26.3577C84.7054 29.2438 87.0965 30.7565 89.353 30.7565C91.1399 30.7565 92.6526 30.1244 93.7518 28.915V30.4255L95.8118 30.4277ZM90.0954 29.2728C88.1714 29.2728 86.8236 28.0644 86.8236 26.3868C86.8236 24.6823 88.1714 23.4727 90.0954 23.4727C91.5523 23.4727 92.9535 24.0223 93.7518 25.1226V27.6241C92.9547 28.7232 91.5523 29.274 90.0954 29.274V29.2728ZM105.781 30.7577C108.2 30.7577 109.629 29.7677 110.647 28.4491L109.272 27.1849C108.393 28.3665 107.266 28.9161 105.903 28.9161C103.071 28.9161 101.313 26.7167 101.313 23.7759C101.313 20.8353 103.072 18.6637 105.903 18.6637C107.277 18.6637 108.404 19.1865 109.272 20.395L110.647 19.1309C109.63 17.8109 108.2 16.8221 105.781 16.8221C101.822 16.8221 99.1556 19.8465 99.1556 23.7771C99.1556 27.7357 101.822 30.7484 105.781 30.7484V30.7577ZM116.888 30.7577C118.097 30.7577 118.84 30.3998 119.363 29.906L118.759 28.3665C118.483 28.6687 117.945 28.9161 117.356 28.9161C116.45 28.9161 116.009 28.2015 116.009 27.2117V18.9647H118.704V17.151H116.009V13.5225H113.946V17.151H111.747V18.9658H113.946V27.6532C113.946 29.633 114.936 30.7601 116.888 30.7601V30.7577Z" fill="#151515"/>
</svg>
