<svg width="116" height="24" viewBox="0 0 116 24" fill="none" xmlns="http://www.w3.org/2000/svg">
<path d="M80.9512 23.4528H86.1365V9.6521L80.9512 12.3785V23.4528Z" fill="#151515"/>
<path d="M27.0395 16.4363L24.377 23.1449L33.1549 18.5233L31.5273 14.1692L27.0395 16.4363Z" fill="#151515"/>
<path d="M81.3872 5.84375L81.1895 5.94257L80.9512 6.06465V11.4187L86.1365 8.68643L86.5552 8.46552L86.9853 8.24462L91.5429 5.84375H81.9626H81.3872Z" fill="#151515"/>
<path d="M42.9307 23.4526H47.901V9.68688L42.9307 2.22266V23.4526Z" fill="#151515"/>
<path d="M26.1436 16.4137L26.3762 15.8149L29.3467 8.32741L26.8935 1.77588L19.8362 19.1052L19.5921 19.7098L19.3479 20.3027L19.249 20.5586L22.9928 23.8721L23.1323 24L23.2253 23.75L25.8994 17.0066L26.1436 16.4137Z" fill="#151515"/>
<path d="M38.4301 16.2318L36.5175 11.1801L36.3664 10.779L32.4191 0.367432H27.2744L27.3675 0.611589L27.3965 0.704601L29.8032 7.15732L30.0299 7.74446L30.2508 8.33159L31.9832 12.9822L32.1401 13.3834L32.2913 13.7845L33.9131 18.1211L34.0644 18.5281L34.2096 18.935L35.9071 23.4518H41.1681L38.5813 16.633L38.4301 16.2318Z" fill="#151515"/>
<path d="M44.3213 0.367432H42.7109L42.9261 0.692974L47.8964 8.1572L48.3149 8.79085L48.7451 9.4303L57.1162 22.016V13.8832L48.4777 0.367432H44.3213Z" fill="#151515"/>
<path d="M71.5792 0.367432H66.4229V23.4518H71.5792V0.367432Z" fill="#151515"/>
<path d="M91.1939 0.908065L90.9788 0.54183L90.8799 0.367432H73.7773V4.98315H93.5308L93.0599 4.16931L91.1939 0.908065Z" fill="#151515"/>
<path d="M99.3968 0.367432H93.7695L101.472 13.7786L104.216 8.8606L99.3968 0.367432Z" fill="#151515"/>
<path d="M57.9688 13.6333V23.4518H62.9392V0.367432H57.9688V13.6333Z" fill="#151515"/>
<path d="M13.6379 16.7559C13.202 18.436 11.7311 19.4067 9.56862 19.4067C8.03974 19.4067 6.08067 18.9301 5.35982 16.6745L5.30751 16.4885H0L0.0523194 16.7791C0.813856 21.1973 4.3832 23.7958 9.58026 23.7958C11.6662 23.8561 13.7162 23.2448 15.4284 22.0518V20.645C15.492 19.8972 15.3604 19.1457 15.0466 18.464C14.7327 17.7824 14.2473 17.1938 13.6379 16.7559Z" fill="#151515"/>
<path d="M5.0916 6.88511C5.59154 5.35622 7.00416 4.36215 8.96323 4.36215C9.79731 4.30032 10.6287 4.51355 11.3301 4.96922C12.0314 5.42489 12.5641 6.09787 12.8465 6.88511L12.8988 7.05369H17.997L17.9447 6.75722C17.1366 2.52517 13.7649 0.00221222 8.92254 0.00221222C6.90279 -0.0421261 4.92483 0.581095 3.2953 1.77526L3.21973 3.44948C3.21973 4.0308 3.88244 6.07125 5.0916 6.88511Z" fill="#151515"/>
<path d="M12.0873 9.97215V9.94309L8.01807 8.98971C7.22999 8.80759 6.46109 8.55064 5.72184 8.22236L5.3091 8.01309L4.90217 7.77474C4.109 7.31965 3.45694 6.65434 3.0179 5.85216C2.57886 5.05 2.36991 4.14216 2.4141 3.22877V2.46143L1.9781 3.04275L1.9316 3.11251C1.62568 3.52438 1.37003 3.97128 1.17006 4.44374C0.806157 5.31832 0.624186 6.25784 0.635241 7.20505C0.635241 10.5709 2.60593 12.7334 6.50662 13.5996L10.4887 14.5007C11.329 14.7098 12.1482 14.9958 12.9361 15.3552L13.3546 15.5703L13.7674 15.8145C14.5934 16.3004 15.2673 17.0075 15.713 17.8558C16.1589 18.7043 16.3588 19.6603 16.2903 20.6163V21.4126L16.7263 20.8313L16.7786 20.7615C16.9249 20.5754 17.0608 20.3814 17.1856 20.1802C17.3199 19.9533 17.4402 19.7184 17.546 19.4768C17.94 18.559 18.138 17.569 18.1274 16.5702C18.139 13.2217 16.0113 10.8848 12.0873 9.97215Z" fill="#151515"/>
<path d="M101.991 15.7388V23.453H107.107V15.7388H102.392H101.991Z" fill="#151515"/>
<path d="M109.929 0.367432L109.859 0.495323L105.185 8.85479L104.947 9.29078L104.703 9.72096L101.959 14.6331L101.994 14.7029V14.8773H107.004L107.075 14.7552L107.11 14.7029L107.15 14.6331L115.417 0.367432H109.929Z" fill="#151515"/>
</svg>
