<svg width="130" height="30" viewBox="0 0 130 30" fill="none" xmlns="http://www.w3.org/2000/svg">
<path fill-rule="evenodd" clip-rule="evenodd" d="M65.2174 21.7448V19.9983C66.8117 21.008 68.4264 21.5128 70.0621 21.5128C71.8012 21.5128 73.1212 21.1548 74.0217 20.4388C74.9223 19.7227 75.3727 18.7207 75.3727 17.4328C75.3727 16.2995 75.0699 15.3954 74.4643 14.7205C73.8803 14.0698 72.6395 13.1916 70.7415 12.0857L70.5279 11.962C68.2712 10.6534 66.8426 9.55863 66.2422 8.67783C65.6419 7.79683 65.3417 6.77944 65.3417 5.62547C65.3417 4.05941 65.9523 2.73034 67.1739 1.63819C68.3955 0.546056 70.0259 0 72.0652 0C73.3902 0 74.7153 0.221515 76.0403 0.664546V2.27184C74.736 1.68455 73.3437 1.39092 71.8634 1.39092C70.352 1.39092 69.1537 1.77212 68.2686 2.53457C67.3835 3.297 66.941 4.26548 66.941 5.44006C66.941 6.57335 67.2438 7.47484 67.8494 8.14453C68.455 8.81422 69.7619 9.72615 71.7702 10.8801C73.8509 12.0546 75.2355 13.0979 75.9238 14.0096C76.6124 14.9216 76.9565 15.9699 76.9565 17.1546C76.9565 18.8547 76.3638 20.2405 75.1785 21.3119C73.9932 22.3835 72.3188 22.9193 70.1553 22.9193C69.3892 22.9193 68.5068 22.8007 67.5078 22.5637C66.5089 22.3269 65.7453 22.0537 65.2174 21.7448ZM10.0301 3.49619H16.3975V0.372671H0V3.49619H6.35198V22.5466H10.0301V3.49619ZM22.2671 25.0819L29.441 6.70807H25.8074L21.8324 18.2458C21.7381 18.5994 21.6641 18.8873 21.6106 19.1096L21.5529 19.3593H21.4752C21.3924 19.0058 21.3265 18.7297 21.2774 18.5311L21.1956 18.2148L17.4069 6.70807H13.4161L19.7361 22.5143L18.6647 25.1128C18.002 26.4324 16.9979 27.0924 15.6522 27.0924C15.1863 27.0924 14.6687 26.9996 14.0994 26.814V29.7989C14.6066 29.9329 15.2381 30 15.9937 30C18.6853 30 20.7764 28.3606 22.2671 25.0819ZM35.3379 20.1999H35.2759V29.8137H31.677V6.7064H35.2759V9.48857H35.3379C36.5685 7.38633 38.3679 6.3354 40.7363 6.3354C42.7528 6.3354 44.3247 7.04124 45.452 8.45292C46.5792 9.8646 47.1428 11.7606 47.1428 14.1408C47.1428 16.7788 46.5069 18.8911 45.2348 20.4781C43.9629 22.0649 42.2255 22.8583 40.0226 22.8583C37.9956 22.8583 36.4342 21.9721 35.3379 20.1999ZM35.2174 16.0042V14.0517C35.2174 12.6989 35.6074 11.5716 36.3876 10.6696C37.1676 9.7677 38.1982 9.31677 39.4794 9.31677C40.6884 9.31677 41.6467 9.75484 42.3544 10.6312C43.0623 11.5075 43.4161 12.7194 43.4161 14.267C43.4161 16.1119 43.0364 17.5493 42.2771 18.5791C41.5176 19.6092 40.4715 20.1242 39.1384 20.1242C38.002 20.1242 37.0643 19.7245 36.3255 18.9252C35.5867 18.1258 35.2174 17.152 35.2174 16.0042ZM63.354 15.6019H52.62C52.6612 17.0665 53.1097 18.1957 53.9657 18.9898C54.8217 19.784 55.9981 20.1811 57.4949 20.1811C59.1764 20.1811 60.7192 19.6757 62.1238 18.665V21.5579C60.6885 22.4655 58.7918 22.9193 56.4339 22.9193C54.1168 22.9193 52.2997 22.1998 50.9823 20.7611C49.6649 19.3224 49.0062 17.2984 49.0062 14.6892C49.0062 12.2243 49.7316 10.2158 51.1822 8.66366C52.6328 7.11149 54.4347 6.3354 56.5876 6.3354C58.7406 6.3354 60.4066 7.03155 61.5855 8.42385C62.7645 9.81615 63.354 11.7499 63.354 14.225V15.6019ZM59.0955 10.0234C59.6882 10.7428 59.9897 11.7496 60 13.0435H52.7329C52.8965 11.8219 53.3335 10.8334 54.0438 10.0776C54.7541 9.32199 55.6204 8.9441 56.6424 8.9441C57.685 8.9441 58.5026 9.30391 59.0955 10.0234ZM86.0696 22.9193C87.7118 22.9193 89.1253 22.5589 90.3102 21.8383V20.356C89.1253 21.2001 87.7327 21.6222 86.132 21.6222C84.3857 21.6222 82.98 20.9994 81.9147 19.7538C80.8492 18.5081 80.3165 16.8611 80.3165 14.8125C80.3165 12.692 80.8986 10.9653 82.0628 9.63205C83.2269 8.29901 84.7444 7.63248 86.6152 7.63248C87.9769 7.63248 89.2293 7.98242 90.3727 8.68248V7.07665C89.2293 6.58248 88.0496 6.3354 86.8336 6.3354C84.4845 6.3354 82.5617 7.13571 81.065 8.73652C79.5682 10.3373 78.8199 12.3935 78.8199 14.9053C78.8199 17.2936 79.4851 19.2263 80.8155 20.7034C82.146 22.1806 83.8973 22.9193 86.0696 22.9193ZM99.6894 8.13671C99.2161 7.79497 98.6607 7.62429 98.0228 7.62429C96.7779 7.62429 95.7339 8.27124 94.8902 9.56516C94.0466 10.8593 93.6248 12.6967 93.6248 15.0777V22.5466H92.236V6.64602H93.6248V10.1707H93.6866C94.0466 8.95956 94.6176 8.01764 95.3994 7.34478C96.1813 6.67193 97.0867 6.3354 98.1154 6.3354C98.7018 6.3354 99.2266 6.42857 99.6894 6.61491V8.13671ZM101.915 2.44442C102.156 2.67816 102.434 2.79503 102.748 2.79503C103.084 2.79503 103.372 2.67285 103.613 2.42849C103.855 2.18413 103.975 1.89196 103.975 1.55197C103.975 1.19074 103.852 0.903895 103.605 0.691398C103.359 0.47892 103.073 0.372671 102.748 0.372671C102.444 0.372671 102.169 0.481566 101.922 0.699373C101.676 0.917181 101.553 1.20138 101.553 1.55197C101.553 1.91322 101.673 2.21068 101.915 2.44442ZM101.925 22.5466V6.70807H103.416V22.5466H101.925ZM108.191 19.7273H108.252C109.385 21.8588 111.135 22.9247 113.502 22.9247C115.623 22.9247 117.329 22.1085 118.621 20.4764C119.913 18.8443 120.559 16.705 120.559 14.0584C120.559 11.6799 119.995 9.79789 118.868 8.41286C117.741 7.02783 116.174 6.3354 114.166 6.3354C112.9 6.3354 111.74 6.65199 110.685 7.28534C109.629 7.9187 108.819 8.81702 108.252 9.98068H108.191V6.72149H106.77V29.8137H108.191V19.7273ZM108.261 13.8406V15.8305C108.261 17.4142 108.765 18.774 109.774 19.9105C110.782 21.0468 112.107 21.6149 113.75 21.6149C115.382 21.6149 116.708 20.9234 117.727 19.5402C118.745 18.1571 119.255 16.3396 119.255 14.0875C119.255 12.1131 118.787 10.5449 117.851 9.38273C116.916 8.22074 115.668 7.63975 114.109 7.63975C112.248 7.63975 110.808 8.25671 109.789 9.49081C108.77 10.7247 108.261 12.1748 108.261 13.8406ZM127.43 22.9193C128.075 22.9193 128.766 22.7445 129.503 22.3949V21.0684C128.827 21.4489 128.198 21.6391 127.614 21.6391C126.795 21.6391 126.214 21.3948 125.871 20.9065C125.528 20.4181 125.357 19.6289 125.357 18.5389V8.11248H129.503V6.81689H125.357V2.23602C125.131 2.31829 124.896 2.3954 124.65 2.46738C124.404 2.54965 124.169 2.63189 123.944 2.71416V6.81689H121.118V8.11248H123.944V18.7239C123.944 21.5208 125.106 22.9193 127.43 22.9193Z" fill="black"/>
</svg>
