<svg width="57" height="27" viewBox="0 0 57 27" fill="none" xmlns="http://www.w3.org/2000/svg">
<path fill-rule="evenodd" clip-rule="evenodd" d="M0 0.952978C0 0.680702 0.15114 0.453812 0.45343 0.272276C0.75572 0.0907609 1.07175 0 1.4015 0C1.85951 0 2.14348 0.172439 2.25341 0.51734L7.09 16.6904L11.8991 0.51734C12.0274 0.172459 12.3022 0 12.7235 0C13.0716 0 13.3968 0.0998304 13.6991 0.299501C14.0014 0.499167 14.1525 0.726063 14.1525 0.980202C14.1525 0.998352 14.148 1.02558 14.1388 1.06188C14.1296 1.09818 14.125 1.13449 14.125 1.17079L8.54649 19.2771C8.34496 19.8035 7.85951 20.0667 7.09003 20.0667C6.32056 20.0667 5.85339 19.8035 5.68851 19.2771L0.0552177 1.1708C0.0185777 1.06189 0.000259399 0.989279 0.000259399 0.952978H0ZM14.369 14.8933V7.81429C14.369 7.59647 14.4835 7.40588 14.7126 7.24252C14.9416 7.07915 15.2118 6.99747 15.5232 6.99747C15.8164 6.99747 16.0774 7.08369 16.3064 7.25613C16.5354 7.42857 16.6499 7.61462 16.6499 7.81428V14.8932C16.6499 15.7101 16.9614 16.4452 17.5843 17.0987C18.2072 17.7521 18.9492 18.0789 19.8102 18.0789C20.653 18.0789 21.3858 17.7567 22.0087 17.1123C22.6316 16.4679 22.943 15.7282 22.943 14.8932V7.78663C22.943 7.58697 23.0575 7.40545 23.2865 7.2421C23.5155 7.07874 23.7857 6.99706 24.0972 6.99706C24.427 6.99706 24.6972 7.0742 24.9079 7.22849C25.1186 7.38278 25.2239 7.56883 25.2239 7.78665V14.8933C25.2239 16.291 24.688 17.5116 23.6163 18.5553C22.5446 19.5991 21.2759 20.1209 19.8103 20.1209C18.3263 20.1209 17.0485 19.5991 15.9767 18.5553C14.905 17.5116 14.3691 16.291 14.3691 14.8933H14.369ZM27.0889 14.8388V11.9799C27.0889 10.5822 27.6248 9.37518 28.6965 8.35865C29.7682 7.34217 31.0552 6.83393 32.5575 6.83393C33.9865 6.83393 35.2231 7.31041 36.2674 8.2634C37.3117 9.21634 37.8338 10.4098 37.8338 11.8438C37.8338 12.3702 37.7697 12.7922 37.6414 13.1099C37.5132 13.4276 37.3162 13.6544 37.0506 13.7906C36.785 13.9267 36.5376 14.013 36.3086 14.0493C36.0796 14.0856 35.7727 14.1037 35.388 14.1037H29.3696V14.9205C29.3696 15.9189 29.7315 16.7176 30.4551 17.3166C31.1788 17.9156 32.1177 18.2151 33.2719 18.2151C33.8765 18.2151 34.4032 18.1243 34.852 17.9428C35.3009 17.7613 35.6627 17.5843 35.9375 17.4119C36.2123 17.2395 36.4322 17.1532 36.597 17.1532C36.8535 17.1532 37.0734 17.2667 37.2566 17.4936C37.4398 17.7205 37.5314 17.9519 37.5314 18.1879C37.5314 18.6053 37.1146 19.0319 36.281 19.4675C35.4475 19.9032 34.4169 20.121 33.1895 20.121C31.3941 20.121 29.9284 19.6354 28.7926 18.6643C27.6567 17.6932 27.0888 16.4181 27.0888 14.8389L27.0889 14.8388ZM29.3697 12.5789H34.4536C34.93 12.5789 35.2506 12.5199 35.4155 12.402C35.5804 12.284 35.6628 12.0525 35.6628 11.7077C35.6628 10.8909 35.3605 10.1739 34.756 9.5567C34.1514 8.93954 33.4094 8.63095 32.53 8.63095C31.669 8.63095 30.927 8.91684 30.3041 9.48859C29.6812 10.0604 29.3698 10.7637 29.3698 11.5987L29.3697 12.5789ZM38.9846 18.6506C38.9846 18.2512 39.122 17.9109 39.3968 17.6296C39.6716 17.3482 40.0106 17.2075 40.4136 17.2075C40.7983 17.2075 41.1281 17.3482 41.4029 17.6296C41.6777 17.9109 41.8151 18.2513 41.8151 18.6506C41.8151 19.0318 41.6777 19.363 41.4029 19.6444C41.1281 19.9257 40.7983 20.0664 40.4136 20.0664C40.0106 20.0664 39.6716 19.9257 39.3968 19.6444C39.122 19.363 38.9846 19.0318 38.9846 18.6506ZM41.0148 25.158C41.0148 24.8676 41.1064 24.6271 41.2896 24.4365C41.4728 24.2459 41.6926 24.1506 41.9491 24.1506C42.6636 24.1506 43.1308 23.8874 43.3506 23.361C43.5705 22.8346 43.6804 22.0451 43.6804 20.9922V7.78686C43.6804 7.55088 43.7858 7.36029 43.9964 7.21508C44.2071 7.06987 44.4773 6.99726 44.8071 6.99726C45.1369 6.99726 45.4117 7.06987 45.6315 7.21508C45.8514 7.36029 45.9613 7.55088 45.9613 7.78686V20.9922C45.9613 22.5715 45.6499 23.8239 45.027 24.7496C44.404 25.6754 43.4606 26.1382 42.1965 26.1382C41.4087 26.1382 41.0148 25.8115 41.0148 25.158L41.0148 25.158ZM43.3781 2.15075C43.3781 1.80587 43.5155 1.50639 43.7903 1.25224C44.0651 0.998117 44.404 0.871059 44.8071 0.871059C45.1918 0.871059 45.5216 0.998121 45.7963 1.25224C46.0712 1.50637 46.2086 1.80587 46.2086 2.15075C46.2086 2.49562 46.0712 2.79968 45.7963 3.06287C45.5216 3.32607 45.1918 3.45767 44.8071 3.45767C44.4223 3.45767 44.088 3.32608 43.804 3.06287C43.52 2.79968 43.3781 2.49562 43.3781 2.15075H43.3781ZM47.6616 18.0514C47.6616 17.8154 47.7394 17.584 47.8952 17.3571C48.0509 17.1302 48.2387 17.0168 48.4585 17.0168C48.6051 17.0168 48.8158 17.1257 49.0906 17.3435C49.3654 17.5613 49.7593 17.7746 50.2722 17.9833C50.7852 18.1921 51.3897 18.2965 52.0859 18.2965C53.002 18.2965 53.666 18.1331 54.0783 17.8064C54.4905 17.4796 54.6966 17.0712 54.6966 16.5811C54.6966 15.9821 54.4676 15.5056 54.0095 15.1517C53.5515 14.7977 52.9928 14.53 52.3332 14.3485C51.6737 14.167 51.0141 13.9673 50.3546 13.7495C49.6951 13.5316 49.1363 13.1686 48.6783 12.6603C48.2203 12.1521 47.9912 11.4805 47.9912 10.6455C47.9912 9.6109 48.3622 8.71692 49.1042 7.96363C49.8462 7.21035 50.9775 6.8337 52.498 6.8337C53.469 6.8337 54.3575 6.98345 55.1637 7.28295C55.9698 7.58246 56.3728 7.92279 56.3728 8.30396C56.3728 8.52178 56.2858 8.76682 56.1117 9.0391C55.9377 9.31138 55.7224 9.44751 55.4659 9.44751C55.3926 9.44751 55.04 9.31591 54.4079 9.05271C53.7759 8.78951 53.1484 8.65791 52.5255 8.65791C51.6827 8.65791 51.0553 8.85304 50.6431 9.24331C50.2309 9.63357 50.0248 10.0738 50.0248 10.5638C50.0248 11.0721 50.2538 11.4715 50.7118 11.7618C51.1698 12.0523 51.7332 12.2792 52.4018 12.4425C53.0705 12.6059 53.7346 12.8056 54.3942 13.0416C55.0537 13.2776 55.6125 13.6814 56.0705 14.2532C56.5285 14.825 56.7575 15.5646 56.7575 16.4722C56.7575 17.5976 56.3545 18.487 55.5484 19.1405C54.7423 19.7939 53.6156 20.1207 52.1683 20.1207C50.9225 20.1207 49.86 19.8983 48.9806 19.4536C48.1012 19.0089 47.6615 18.5415 47.6615 18.0514L47.6616 18.0514Z" fill="black"/>
</svg>
