<svg width="267" height="267" viewBox="0 0 267 267" fill="none" xmlns="http://www.w3.org/2000/svg">
<path d="M266.667 0.00341797H0V266.67H266.667V0.00341797Z" fill="black"/>
<path d="M0 32.1845V64.3688H32.1843H64.3686V32.1845V0.000128269H32.1843H0V32.1845ZM55.1731 32.1845V55.1733H32.1843H9.19552V32.1845V9.19565H32.1843H55.1731V32.1845Z" fill="white"/>
<path d="M18.3906 32.1844V45.9777H32.1839H45.9772V32.1844V18.3911H32.1839H18.3906V32.1844Z" fill="white"/>
<path d="M73.5645 4.5978V9.19556H82.76H91.9555V4.5978V3.66569e-05H82.76H73.5645V4.5978Z" fill="white"/>
<path d="M137.933 4.59782V9.19558H133.335H128.737V13.7933V18.3911H114.944H101.151V27.5866V36.7821H96.553H91.9552V32.1844V27.5866H87.3574H82.7597V22.9889V18.3911H78.1619H73.5642V32.1844V45.9777H78.1619H82.7597V50.5754V55.1732H78.1619H73.5642V59.7709V64.3687H78.1619H82.7597V68.9665V73.5642H78.1619H73.5642V78.162V82.7597H68.9664H64.3686V78.162V73.5642H59.7709H55.1731V78.162V82.7597H45.9776H36.7821V78.162V73.5642H18.391H0V82.7597V91.9553H4.59776H9.19552V87.3575V82.7597H13.7933H18.391V105.749V128.737H13.7933H9.19552V114.944V101.151H4.59776H0V119.542V137.933H4.59776H9.19552V142.531V147.128H13.7933H18.391V156.324V165.519H22.9888H27.5866V156.324V147.128H22.9888H18.391V142.531V137.933H22.9888H27.5866V133.335V128.737H41.3798H55.1731V133.335V137.933H59.7709H64.3686V133.335V128.737H68.9664H73.5642V124.14V119.542H68.9664H64.3686V114.944V110.346H73.5642H82.7597V114.944V119.542H87.3574H91.9552V124.14V128.737H87.3574H82.7597V133.335V137.933H78.1619H73.5642V142.531V147.128H64.3686H55.1731V151.726V156.324H45.9776H36.7821V165.519V174.715H32.1843H27.5866V183.91V193.106H32.1843H36.7821V183.91V174.715H41.3798H45.9776V170.117V165.519H50.5754H55.1731V170.117V174.715H59.7709H64.3686V179.313V183.91H55.1731H45.9776V188.508V193.106H59.7709H73.5642V197.704V202.302H82.7597H91.9552V206.899V211.497H87.3574H82.7597V220.693V229.888H78.1619H73.5642V248.279V266.67H78.1619H82.7597V262.072V257.475H87.3574H91.9552V262.072V266.67H96.553H101.151V262.072V257.475H105.748H110.346V262.072V266.67H114.944H119.542V262.072V257.475H114.944H110.346V248.279V239.084H114.944H119.542V243.681V248.279H124.14H128.737V257.475V266.67H137.933H147.128V262.072V257.475H151.726H156.324V252.877V248.279H160.922H165.519V234.486V220.693H170.117H174.715V216.095V211.497H179.313H183.91V220.693V229.888H179.313H174.715V239.084V248.279H179.313H183.91V252.877V257.475H174.715H165.519V262.072V266.67H179.313H193.106V262.072V257.475H197.704H202.301V262.072V266.67H206.899H211.497V262.072V257.475H206.899H202.301V243.681V229.888H206.899H211.497V239.084V248.279H216.095H220.693V243.681V239.084H229.888H239.084V243.681V248.279H234.486H229.888V252.877V257.475H225.29H220.693V262.072V266.67H225.29H229.888V262.072V257.475H234.486H239.084V252.877V248.279H243.681H248.279V257.475V266.67H252.877H257.475V257.475V248.279H262.072H266.67V239.084V229.888H262.072H257.475V216.095V202.302H262.072H266.67V197.704V193.106H257.475H248.279V179.313V165.519H252.877H257.475V151.726V137.933H262.072H266.67V128.737V119.542H257.475H248.279V114.944V110.346H239.084H229.888V114.944V119.542H234.486H239.084V128.737V137.933H243.681H248.279V147.128V156.324H243.681H239.084V151.726V147.128H229.888H220.693V142.531V137.933H225.29H229.888V133.335V128.737H225.29H220.693V133.335V137.933H216.095H211.497V156.324V174.715H220.693H229.888V170.117V165.519H234.486H239.084V174.715V183.91H220.693H202.301V174.715V165.519H197.704H193.106V160.922V156.324H197.704H202.301V151.726V147.128H193.106H183.91V142.531V137.933H193.106H202.301V133.335V128.737H206.899H211.497V124.14V119.542H206.899H202.301V124.14V128.737H193.106H183.91V119.542V110.346H188.508H193.106V105.749V101.151H197.704H202.301V105.749V110.346H206.899H211.497V105.749V101.151H206.899H202.301V96.553V91.9553H216.095H229.888V87.3575V82.7597H239.084H248.279V78.162V73.5642H234.486H220.693V78.162V82.7597H211.497H202.301V78.162V73.5642H193.106H183.91V68.9665V64.3687H188.508H193.106V59.7709V55.1732H188.508H183.91V36.7821V18.3911H174.715H165.519V22.9889V27.5866H160.922H156.324V32.1844V36.7821H165.519H174.715V41.3799V45.9777H160.922H147.128V59.7709V73.5642H151.726H156.324V78.162V82.7597H151.726H147.128V91.9553V101.151H142.531H137.933V96.553V91.9553H133.335H128.737V96.553V101.151H114.944H101.151V110.346V119.542H96.553H91.9552V114.944V110.346H87.3574H82.7597V105.749V101.151H73.5642H64.3686V96.553V91.9553H68.9664H73.5642V87.3575V82.7597H78.1619H82.7597V87.3575V91.9553H87.3574H91.9552V87.3575V82.7597H87.3574H82.7597V78.162V73.5642H87.3574H91.9552V68.9665V64.3687H96.553H101.151V68.9665V73.5642H105.748H110.346V68.9665V64.3687H114.944H119.542V73.5642V82.7597H128.737H137.933V64.3687V45.9777H133.335H128.737V41.3799V36.7821H124.14H119.542V41.3799V45.9777H114.944H110.346V36.7821V27.5866H128.737H147.128V18.3911V9.19558H151.726H156.324V4.59782V6.05583e-05H147.128H137.933V4.59782ZM110.346 55.1732V64.3687H105.748H101.151V59.7709V55.1732H96.553H91.9552V59.7709V64.3687H87.3574H82.7597V59.7709V55.1732H87.3574H91.9552V50.5754V45.9777H101.151H110.346V55.1732ZM128.737 55.1732V64.3687H124.14H119.542V55.1732V45.9777H124.14H128.737V55.1732ZM165.519 59.7709V64.3687H170.117H174.715V59.7709V55.1732H179.313H183.91V59.7709V64.3687H179.313H174.715V68.9665V73.5642H170.117H165.519V68.9665V64.3687H160.922H156.324V59.7709V55.1732H160.922H165.519V59.7709ZM64.3686 87.3575V91.9553H59.7709H55.1731V96.553V101.151H59.7709H64.3686V105.749V110.346H59.7709H55.1731V105.749V101.151H50.5754H45.9776V110.346V119.542H41.3798H36.7821V105.749V91.9553H45.9776H55.1731V87.3575V82.7597H59.7709H64.3686V87.3575ZM165.519 87.3575V91.9553H179.313H193.106V96.553V101.151H188.508H183.91V105.749V110.346H179.313H174.715V119.542V128.737H165.519H156.324V133.335V137.933H165.519H174.715V142.531V147.128H170.117H165.519V151.726V156.324H174.715H183.91V160.922V165.519H188.508H193.106V174.715V183.91H188.508H183.91V193.106V202.302H179.313H174.715V197.704V193.106H170.117H165.519V188.508V183.91H174.715H183.91V179.313V174.715H165.519H147.128V179.313V183.91H151.726H156.324V188.508V193.106H151.726H147.128V197.704V202.302H156.324H165.519V211.497V220.693H160.922H156.324V225.29V229.888H147.128H137.933V225.29V220.693H133.335H128.737V229.888V239.084H142.531H156.324V243.681V248.279H151.726H147.128V252.877V257.475H142.531H137.933V252.877V248.279H133.335H128.737V243.681V239.084H124.14H119.542V229.888V220.693H114.944H110.346V225.29V229.888H105.748H101.151V239.084V248.279H91.9552H82.7597V243.681V239.084H87.3574H91.9552V234.486V229.888H96.553H101.151V220.693V211.497H114.944H128.737V206.899V202.302H133.335H137.933V197.704V193.106H133.335H128.737V188.508V183.91H124.14H119.542V174.715V165.519H124.14H128.737V160.922V156.324H119.542H110.346V160.922V165.519H105.748H101.151V170.117V174.715H105.748H110.346V179.313V183.91H105.748H101.151V188.508V193.106H105.748H110.346V197.704V202.302H105.748H101.151V197.704V193.106H87.3574H73.5642V183.91V174.715H68.9664H64.3686V170.117V165.519H59.7709H55.1731V160.922V156.324H64.3686H73.5642V151.726V147.128H78.1619H82.7597V142.531V137.933H87.3574H91.9552V133.335V128.737H101.151H110.346V119.542V110.346H124.14H137.933V119.542V128.737H147.128H156.324V124.14V119.542H151.726H147.128V114.944V110.346H151.726H156.324V96.553V82.7597H160.922H165.519V87.3575ZM64.3686 124.14V128.737H59.7709H55.1731V124.14V119.542H59.7709H64.3686V124.14ZM229.888 160.922V165.519H225.29H220.693V160.922V156.324H225.29H229.888V160.922ZM220.693 206.899V220.693H206.899H193.106V206.899V193.106H206.899H220.693V206.899ZM248.279 211.497V220.693H243.681H239.084V225.29V229.888H248.279H257.475V239.084V248.279H252.877H248.279V243.681V239.084H243.681H239.084V234.486V229.888H234.486H229.888V225.29V220.693H234.486H239.084V211.497V202.302H243.681H248.279V211.497Z" fill="white"/>
<path d="M165.52 105.749V110.346H160.922H156.324V114.944V119.542H160.922H165.52V114.944V110.346H170.117H174.715V105.749V101.151H170.117H165.52V105.749Z" fill="white"/>
<path d="M119.542 124.14V128.737H114.944H110.347V137.933V147.128H105.749H101.151V142.531V137.933H96.5533H91.9555V142.531V147.128H96.5533H101.151V151.726V156.324H87.3577H73.5645V165.519V174.715H78.1622H82.76V179.313V183.911H87.3577H91.9555V179.313V174.715H87.3577H82.76V170.117V165.519H91.9555H101.151V160.922V156.324H105.749H110.347V151.726V147.128H119.542H128.738V142.531V137.933H133.335H137.933V142.531V147.128H142.531H147.129V142.531V137.933H142.531H137.933V133.335V128.737H133.335H128.738V124.14V119.542H124.14H119.542V124.14ZM128.738 133.335V137.933H124.14H119.542V133.335V128.737H124.14H128.738V133.335Z" fill="white"/>
<path d="M137.933 165.519V174.715H142.53H147.128V165.519V156.324H142.53H137.933V165.519Z" fill="white"/>
<path d="M156.324 160.922V165.519H160.922H165.52V160.922V156.324H160.922H156.324V160.922Z" fill="white"/>
<path d="M137.933 216.095V220.693H142.53H147.128V216.095V211.497H142.53H137.933V216.095Z" fill="white"/>
<path d="M202.302 206.899V211.497H206.9H211.497V206.899V202.302H206.9H202.302V206.899Z" fill="white"/>
<path d="M165.52 4.5978V9.19556H179.313H193.106V4.5978V3.66569e-05H179.313H165.52V4.5978Z" fill="white"/>
<path d="M202.302 32.1845V64.3688H234.486H266.67V32.1845V0.000128269H234.486H202.302V32.1845ZM257.475 32.1845V55.1733H234.486H211.497V32.1845V9.19565H234.486H257.475V32.1845Z" fill="white"/>
<path d="M220.692 32.1844V45.9777H234.486H248.279V32.1844V18.3911H234.486H220.692V32.1844Z" fill="white"/>
<path d="M257.475 82.7598V91.9553H248.28H239.084V96.553V101.151H248.28H257.475V105.749V110.346H262.073H266.671V105.749V101.151H262.073H257.475V96.553V91.9553H262.073H266.671V82.7598V73.5642H262.073H257.475V82.7598Z" fill="white"/>
<path d="M36.7822 142.531V147.128H41.38H45.9777V142.531V137.933H41.38H36.7822V142.531Z" fill="white"/>
<path d="M0 170.117V174.715H4.59776H9.19552V170.117V165.519H4.59776H0V170.117Z" fill="white"/>
<path d="M9.19531 188.508V193.106H13.7931H18.3908V188.508V183.91H13.7931H9.19531V188.508Z" fill="white"/>
<path d="M0 234.486V266.67H32.1843H64.3686V234.486V202.302H32.1843H0V234.486ZM55.1731 234.486V257.475H32.1843H9.19552V234.486V211.497H32.1843H55.1731V234.486Z" fill="white"/>
<path d="M18.3906 234.486V248.279H32.1839H45.9772V234.486V220.693H32.1839H18.3906V234.486Z" fill="white"/>
</svg>
