<svg width="267" height="267" viewBox="0 0 267 267" fill="none" xmlns="http://www.w3.org/2000/svg">
<path d="M266.667 0H0V266.667H266.667V0Z" fill="white"/>
<path d="M0 37.3355V74.6685H37.333H74.6659V37.3355V0.00253332H37.333H0V37.3355ZM63.9994 37.3355V64.0019H37.333H10.6666V37.3355V10.6691H37.333H63.9994V37.3355Z" fill="black"/>
<path d="M21.333 37.3356V53.3354H37.3328H53.3327V37.3356V21.3358H37.3328H21.333V37.3356Z" fill="black"/>
<path d="M95.9991 10.6688V21.3354H90.6658H85.3325V26.6687V32.002H90.6658H95.9991V26.6687V21.3354H101.332H106.666V16.0021V10.6688H111.999H117.332V16.0021V21.3354H122.665H127.999V10.6688V0.00227422H111.999H95.9991V10.6688Z" fill="black"/>
<path d="M138.665 5.33579V10.6691H143.999H149.332V26.6689V42.6688H143.999H138.665V48.002V53.3353H133.332H127.999V42.6688V32.0022H117.332H106.666V37.3355V42.6688H111.999H117.332V53.3353V64.0019H111.999H106.666V69.3352V74.6684H101.332H95.999V69.3352V64.0019H90.6658H85.3325V74.6684V85.335H63.9994H42.6662V90.6683V96.0015H47.9995H53.3328V101.335V106.668H58.6661H63.9994V112.001V117.335H53.3328H42.6662V112.001V106.668H37.333H31.9997V96.0015V85.335H15.9998H0V106.668V128.001H5.33328H10.6666V133.335V138.668H15.9998H21.3331V133.335V128.001H26.6664H31.9997V133.335V138.668H37.333H42.6662V144.001V149.334H31.9997H21.3331V154.668V160.001H15.9998H10.6666V154.668V149.334H5.33328H0V154.668V160.001H5.33328H10.6666V165.334V170.667H5.33328H0V176.001V181.334H5.33328H10.6666V176.001V170.667H15.9998H21.3331V176.001V181.334H37.333H53.3328V176.001V170.667H58.6661H63.9994V176.001V181.334H69.3326H74.6659V176.001V170.667H79.9992H85.3325V197.334V224H90.6658H95.999V229.334V234.667H90.6658H85.3325V250.667V266.667H90.6658H95.999V261.333V256H101.332H106.666V261.333V266.667H159.998H213.331V261.333V256H223.998H234.664V250.667V245.333H229.331H223.998V240V234.667H234.664H245.331V229.334V224H250.664H255.997V218.667V213.334H261.331H266.664V197.334V181.334H255.997H245.331V192.001V202.667H250.664H255.997V208V213.334H250.664H245.331V218.667V224H239.998H234.664V197.334V170.667H229.331H223.998V165.334V160.001H218.664H213.331V154.668V149.334H207.998H202.665V138.668V128.001H186.665H170.665V122.668V117.335H159.998H149.332V112.001V106.668H143.999H138.665V112.001V117.335H127.999H117.332V128.001V138.668H122.665H127.999V144.001V149.334H133.332H138.665V154.668V160.001H133.332H127.999V165.334V170.667H122.665H117.332V160.001V149.334H111.999H106.666V144.001V138.668H101.332H95.999V128.001V117.335H101.332H106.666V112.001V106.668H85.3325H63.9994V101.335V96.0015H79.9992H95.999V90.6683V85.335H101.332H106.666V90.6683V96.0015H127.999H149.332V90.6683V85.335H154.665H159.998V74.6684V64.0019H165.332H170.665V69.3352V74.6684H175.998H181.332V69.3352V64.0019H175.998H170.665V53.3353V42.6688H165.332H159.998V32.0022V21.3356H165.332H170.665V26.6689V32.0022H175.998H181.332V21.3356V10.6691H175.998H170.665V5.33579V0.00251299H154.665H138.665V5.33579ZM159.998 58.6686V64.0019H154.665H149.332V69.3352V74.6684H143.999H138.665V64.0019V53.3353H149.332H159.998V58.6686ZM127.999 74.6684V85.335H117.332H106.666V80.0017V74.6684H111.999H117.332V69.3352V64.0019H122.665H127.999V74.6684ZM21.3331 122.668V128.001H15.9998H10.6666V122.668V117.335H15.9998H21.3331V122.668ZM85.3325 128.001V138.668H90.6658H95.999V144.001V149.334H101.332H106.666V160.001V170.667H111.999H117.332V176.001V181.334H122.665H127.999V186.667V192.001H133.332H138.665V186.667V181.334H143.999H149.332V165.334V149.334H154.665H159.998V144.001V138.668H154.665H149.332V133.335V128.001H159.998H170.665V138.668V149.334H175.998H181.332V154.668V160.001H170.665H159.998V176.001V192.001H154.665H149.332V197.334V202.667H143.999H138.665V208V213.334H133.332H127.999V234.667V256H117.332H106.666V250.667V245.333H111.999H117.332V240V234.667H111.999H106.666V218.667V202.667H101.332H95.999V197.334V192.001H101.332H106.666V186.667V181.334H101.332H95.999V165.334V149.334H90.6658H85.3325V144.001V138.668H79.9992H74.6659V144.001V149.334H69.3326H63.9994V144.001V138.668H53.3328H42.6662V133.335V128.001H53.3328H63.9994V122.668V117.335H74.6659H85.3325V128.001ZM53.3328 160.001V170.667H47.9995H42.6662V160.001V149.334H47.9995H53.3328V160.001ZM202.665 154.668V160.001H207.998H213.331V165.334V170.667H207.998H202.665V165.334V160.001H197.331H191.998V154.668V149.334H197.331H202.665V154.668ZM31.9997 165.334V170.667H26.6664H21.3331V165.334V160.001H26.6664H31.9997V165.334ZM74.6659 165.334V170.667H69.3326H63.9994V165.334V160.001H69.3326H74.6659V165.334ZM213.331 197.334V213.334H197.331H181.332V197.334V181.334H197.331H213.331V197.334ZM170.665 213.334V224H186.665H202.665V229.334V234.667H207.998H213.331V245.333V256H202.665H191.998V250.667V245.333H186.665H181.332V240V234.667H175.998H170.665V229.334V224H165.332H159.998V229.334V234.667H154.665H149.332V224V213.334H154.665H159.998V208V202.667H165.332H170.665V213.334Z" fill="black"/>
<path d="M63.9993 133.335V138.668H69.3325H74.6658V133.335V128.001H69.3325H63.9993V133.335Z" fill="black"/>
<path d="M106.666 197.334V202.667H111.999H117.332V197.334V192H111.999H106.666V197.334Z" fill="black"/>
<path d="M191.998 197.334V202.667H197.331H202.665V197.334V192H197.331H191.998V197.334Z" fill="black"/>
<path d="M191.998 37.3355V74.6685H229.331H266.664V37.3355V0.00253332H229.331H191.998V37.3355ZM255.997 37.3355V64.0019H229.331H202.665V37.3355V10.6691H229.331H255.997V37.3355Z" fill="black"/>
<path d="M213.331 37.3356V53.3354H229.331H245.331V37.3356V21.3358H229.331H213.331V37.3356Z" fill="black"/>
<path d="M181.332 90.6681V96.0014H175.998H170.665V101.335V106.668H175.998H181.332V112.001V117.334H191.998H202.665V101.335V85.3348H191.998H181.332V90.6681Z" fill="black"/>
<path d="M234.664 90.6682V96.0015H239.998H245.331V90.6682V85.3349H239.998H234.664V90.6682Z" fill="black"/>
<path d="M255.998 101.335V106.668H245.331H234.664V112.001V117.335H239.998H245.331V128.001V138.668H250.664H255.998V144.001V149.334H245.331H234.664V138.668V128.001H229.331H223.998V122.668V117.335H218.665H213.331V122.668V128.001H218.665H223.998V138.668V149.334H229.331H234.664V154.668V160.001H239.998H245.331V165.334V170.667H250.664H255.998V165.334V160.001H261.331H266.664V144.001V128.001H261.331H255.998V122.668V117.335H261.331H266.664V106.668V96.0016H261.331H255.998V101.335Z" fill="black"/>
<path d="M0 229.334V266.667H37.333H74.6659V229.334V192.001H37.333H0V229.334ZM63.9994 229.334V256H37.333H10.6666V229.334V202.667H37.333H63.9994V229.334Z" fill="black"/>
<path d="M21.333 229.334V245.333H37.3328H53.3327V229.334V213.334H37.3328H21.333V229.334Z" fill="black"/>
<path d="M255.997 240V245.333H250.664H245.331V256V266.667H255.997H266.664V261.333V256H261.331H255.997V250.667V245.333H261.331H266.664V240V234.667H261.331H255.997V240Z" fill="black"/>
</svg>
