<svg width="267" height="267" viewBox="0 0 267 267" fill="none" xmlns="http://www.w3.org/2000/svg">
<path d="M266.667 0.00341797H0V266.67H266.667V0.00341797Z" fill="white"/>
<path d="M0 32.1843V64.3687H32.1843H64.3686V32.1843V6.19888e-06H32.1843H0V32.1843ZM55.1731 32.1843V55.1731H32.1843H9.19552V32.1843V9.19553H32.1843H55.1731V32.1843Z" fill="black"/>
<path d="M18.3906 32.1845V45.9778H32.1839H45.9772V32.1845V18.3912H32.1839H18.3906V32.1845Z" fill="black"/>
<path d="M73.5645 4.5978V9.19556H82.76H91.9555V4.5978V3.66569e-05H82.76H73.5645V4.5978Z" fill="black"/>
<path d="M119.542 4.59782V9.19558H124.14H128.737V13.7933V18.3911H114.944H101.151V27.5866V36.7821H96.553H91.9552V32.1844V27.5866H87.3574H82.7597V22.9889V18.3911H78.1619H73.5642V32.1844V45.9777H78.1619H82.7597V50.5754V55.1732H78.1619H73.5642V59.7709V64.3687H78.1619H82.7597V68.9665V73.5642H78.1619H73.5642V78.162V82.7597H68.9664H64.3686V78.162V73.5642H59.7709H55.1731V78.162V82.7597H59.7709H64.3686V87.3575V91.9553H55.1731H45.9776V87.3575V82.7597H41.3798H36.7821V78.162V73.5642H18.391H0V78.162V82.7597H13.7933H27.5866V87.3575V91.9553H22.9888H18.391V110.346V128.737H22.9888H27.5866V124.14V119.542H36.7821H45.9776V124.14V128.737H41.3798H36.7821V133.335V137.933H18.391H0V142.531V147.128H22.9888H45.9776V156.324V165.519H41.3798H36.7821V179.313V193.106H41.3798H45.9776V183.91V174.715H59.7709H73.5642V170.117V165.519H78.1619H82.7597V170.117V174.715H87.3574H91.9552V170.117V165.519H87.3574H82.7597V156.324V147.128H87.3574H91.9552V151.726V156.324H101.151H110.346V160.922V165.519H105.748H101.151V170.117V174.715H105.748H110.346V179.313V183.91H91.9552H73.5642V193.106V202.302H82.7597H91.9552V197.704V193.106H101.151H110.346V197.704V202.302H105.748H101.151V206.899V211.497H91.9552H82.7597V216.095V220.693H91.9552H101.151V216.095V211.497H114.944H128.737V206.899V202.302H133.335H137.933V197.704V193.106H133.335H128.737V188.508V183.91H124.14H119.542V174.715V165.519H124.14H128.737V160.922V156.324H119.542H110.346V151.726V147.128H119.542H128.737V142.531V137.933H133.335H137.933V133.335V128.737H147.128H156.324V133.335V137.933H165.519H174.715V142.531V147.128H170.117H165.519V151.726V156.324H160.922H156.324V160.922V165.519H151.726H147.128V160.922V156.324H142.531H137.933V165.519V174.715H142.531H147.128V188.508V202.302H156.324H165.519V211.497V220.693H160.922H156.324V216.095V211.497H147.128H137.933V216.095V220.693H133.335H128.737V229.888V239.084H124.14H119.542V229.888V220.693H114.944H110.346V225.29V229.888H91.9552H73.5642V248.279V266.67H87.3574H101.151V262.072V257.475H105.748H110.346V262.072V266.67H114.944H119.542V262.072V257.475H114.944H110.346V248.279V239.084H114.944H119.542V243.681V248.279H124.14H128.737V257.475V266.67H137.933H147.128V257.475V248.279H137.933H128.737V243.681V239.084H147.128H165.519V252.877V266.67H179.313H193.106V262.072V257.475H197.704H202.301V262.072V266.67H206.899H211.497V262.072V257.475H206.899H202.301V243.681V229.888H206.899H211.497V239.084V248.279H216.095H220.693V243.681V239.084H229.888H239.084V243.681V248.279H234.486H229.888V252.877V257.475H225.29H220.693V262.072V266.67H225.29H229.888V262.072V257.475H234.486H239.084V252.877V248.279H243.681H248.279V257.475V266.67H252.877H257.475V257.475V248.279H262.072H266.67V239.084V229.888H262.072H257.475V239.084V248.279H252.877H248.279V243.681V239.084H243.681H239.084V234.486V229.888H243.681H248.279V225.29V220.693H257.475H266.67V216.095V211.497H262.072H257.475V206.899V202.302H262.072H266.67V197.704V193.106H257.475H248.279V179.313V165.519H252.877H257.475V151.726V137.933H262.072H266.67V128.737V119.542H257.475H248.279V114.944V110.346H239.084H229.888V114.944V119.542H234.486H239.084V128.737V137.933H243.681H248.279V147.128V156.324H243.681H239.084V151.726V147.128H229.888H220.693V142.531V137.933H225.29H229.888V133.335V128.737H225.29H220.693V133.335V137.933H216.095H211.497V156.324V174.715H220.693H229.888V170.117V165.519H234.486H239.084V174.715V183.91H220.693H202.301V174.715V165.519H197.704H193.106V160.922V156.324H197.704H202.301V151.726V147.128H193.106H183.91V142.531V137.933H193.106H202.301V133.335V128.737H206.899H211.497V124.14V119.542H206.899H202.301V124.14V128.737H193.106H183.91V119.542V110.346H188.508H193.106V105.749V101.151H197.704H202.301V105.749V110.346H206.899H211.497V105.749V101.151H206.899H202.301V96.553V91.9553H216.095H229.888V87.3575V82.7597H239.084H248.279V78.162V73.5642H234.486H220.693V78.162V82.7597H211.497H202.301V78.162V73.5642H193.106H183.91V68.9665V64.3687H188.508H193.106V59.7709V55.1732H188.508H183.91V36.7821V18.3911H174.715H165.519V22.9889V27.5866H160.922H156.324V22.9889V18.3911H147.128H137.933V9.19558V6.05583e-05H128.737H119.542V4.59782ZM137.933 32.1844V36.7821H128.737H119.542V41.3799V45.9777H124.14H128.737V55.1732V64.3687H124.14H119.542V73.5642V82.7597H133.335H147.128V87.3575V91.9553H151.726H156.324V87.3575V82.7597H160.922H165.519V87.3575V91.9553H179.313H193.106V96.553V101.151H188.508H183.91V105.749V110.346H179.313H174.715V119.542V128.737H165.519H156.324V124.14V119.542H160.922H165.519V114.944V110.346H151.726H137.933V119.542V128.737H133.335H128.737V133.335V137.933H124.14H119.542V133.335V128.737H114.944H110.346V137.933V147.128H105.748H101.151V137.933V128.737H105.748H110.346V119.542V110.346H124.14H137.933V101.151V91.9553H133.335H128.737V96.553V101.151H114.944H101.151V110.346V119.542H96.553H91.9552V114.944V110.346H87.3574H82.7597V105.749V101.151H78.1619H73.5642V110.346V119.542H78.1619H82.7597V133.335V147.128H78.1619H73.5642V151.726V156.324H68.9664H64.3686V160.922V165.519H59.7709H55.1731V160.922V156.324H59.7709H64.3686V151.726V147.128H55.1731H45.9776V142.531V137.933H55.1731H64.3686V133.335V128.737H59.7709H55.1731V124.14V119.542H50.5754H45.9776V110.346V101.151H36.7821H27.5866V96.553V91.9553H36.7821H45.9776V96.553V101.151H59.7709H73.5642V91.9553V82.7597H78.1619H82.7597V78.162V73.5642H87.3574H91.9552V68.9665V64.3687H87.3574H82.7597V59.7709V55.1732H87.3574H91.9552V50.5754V45.9777H101.151H110.346V36.7821V27.5866H124.14H137.933V32.1844ZM174.715 41.3799V45.9777H165.519H156.324V50.5754V55.1732H160.922H165.519V59.7709V64.3687H170.117H174.715V59.7709V55.1732H179.313H183.91V59.7709V64.3687H179.313H174.715V68.9665V73.5642H170.117H165.519V68.9665V64.3687H160.922H156.324V59.7709V55.1732H151.726H147.128V59.7709V64.3687H142.531H137.933V55.1732V45.9777H147.128H156.324V41.3799V36.7821H165.519H174.715V41.3799ZM183.91 160.922V165.519H188.508H193.106V174.715V183.91H188.508H183.91V193.106V202.302H179.313H174.715V197.704V193.106H170.117H165.519V188.508V183.91H174.715H183.91V179.313V174.715H170.117H156.324V170.117V165.519H160.922H165.519V160.922V156.324H174.715H183.91V160.922ZM229.888 160.922V165.519H225.29H220.693V160.922V156.324H225.29H229.888V160.922ZM220.693 206.899V220.693H206.899H193.106V206.899V193.106H206.899H220.693V206.899ZM248.279 211.497V220.693H243.681H239.084V225.29V229.888H234.486H229.888V225.29V220.693H234.486H239.084V211.497V202.302H243.681H248.279V211.497ZM183.91 220.693V229.888H179.313H174.715V234.486V239.084H170.117H165.519V229.888V220.693H170.117H174.715V216.095V211.497H179.313H183.91V220.693ZM101.151 252.877V257.475H91.9552H82.7597V252.877V248.279H91.9552H101.151V252.877ZM183.91 252.877V257.475H179.313H174.715V252.877V248.279H179.313H183.91V252.877Z" fill="black"/>
<path d="M110.346 55.1732V64.3687H105.748H101.151V59.7709V55.1732H96.5528H91.9551V59.7709V64.3687H96.5528H101.151V68.9664V73.5642H105.748H110.346V68.9664V64.3687H114.944H119.542V55.1732V45.9776H114.944H110.346V55.1732Z" fill="black"/>
<path d="M82.7598 87.3576V91.9553H87.3575H91.9553V87.3576V82.7598H87.3575H82.7598V87.3576Z" fill="black"/>
<path d="M165.52 105.749V110.346H170.117H174.715V105.749V101.151H170.117H165.52V105.749Z" fill="black"/>
<path d="M55.1738 114.944V119.542H59.7716H64.3693V114.944V110.346H59.7716H55.1738V114.944Z" fill="black"/>
<path d="M119.541 124.14V128.737H124.139H128.737V124.14V119.542H124.139H119.541V124.14Z" fill="black"/>
<path d="M64.3691 142.531V147.128H68.9669H73.5647V142.531V137.933H68.9669H64.3691V142.531Z" fill="black"/>
<path d="M202.301 206.899V211.497H206.899H211.496V206.899V202.302H206.899H202.301V206.899Z" fill="black"/>
<path d="M147.129 4.5978V9.19556H151.727H156.324V4.5978V3.66569e-05H151.727H147.129V4.5978Z" fill="black"/>
<path d="M165.52 4.5978V9.19556H179.313H193.106V4.5978V3.66569e-05H179.313H165.52V4.5978Z" fill="black"/>
<path d="M202.301 32.1843V64.3687H234.485H266.669V32.1843V6.19888e-06H234.485H202.301V32.1843ZM257.474 32.1843V55.1731H234.485H211.496V32.1843V9.19553H234.485H257.474V32.1843Z" fill="black"/>
<path d="M220.693 32.1845V45.9778H234.487H248.28V32.1845V18.3912H234.487H220.693V32.1845Z" fill="black"/>
<path d="M257.475 82.7598V91.9553H248.28H239.084V96.553V101.151H248.28H257.475V105.749V110.346H262.073H266.671V105.749V101.151H262.073H257.475V96.553V91.9553H262.073H266.671V82.7598V73.5642H262.073H257.475V82.7598Z" fill="black"/>
<path d="M0 105.749V110.346H4.59776H9.19552V105.749V101.151H4.59776H0V105.749Z" fill="black"/>
<path d="M9.19552 160.922V165.519H4.59776H0V170.117V174.715H4.59776H9.19552V170.117V165.519H13.7933H18.391V160.922V156.324H13.7933H9.19552V160.922Z" fill="black"/>
<path d="M9.19531 188.508V193.106H18.3908H27.5864V188.508V183.91H18.3908H9.19531V188.508Z" fill="black"/>
<path d="M55.1738 188.508V193.106H59.7716H64.3693V188.508V183.91H59.7716H55.1738V188.508Z" fill="black"/>
<path d="M0 234.486V266.67H32.1843H64.3686V234.486V202.302H32.1843H0V234.486ZM55.1731 234.486V257.475H32.1843H9.19552V234.486V211.497H32.1843H55.1731V234.486Z" fill="black"/>
<path d="M18.3906 234.486V248.279H32.1839H45.9772V234.486V220.693H32.1839H18.3906V234.486Z" fill="black"/>
</svg>
