<svg width="267" height="267" viewBox="0 0 267 267" fill="none" xmlns="http://www.w3.org/2000/svg">
<path d="M266.667 0H0V266.667H266.667V0Z" fill="black"/>
<path d="M0 37.3355V74.6685H37.333H74.6659V37.3355V0.00253332H37.333H0V37.3355ZM63.9994 37.3355V64.0019H37.333H10.6666V37.3355V10.6691H37.333H63.9994V37.3355Z" fill="white"/>
<path d="M21.3331 37.3356V53.3354H37.333H53.3328V37.3356V21.3358H37.333H21.3331V37.3356Z" fill="white"/>
<path d="M85.3325 5.33579V10.6691H90.6658H95.999V37.3355V64.0019H90.6658H85.3325V74.6684V85.335H90.6658H95.999V74.6684V64.0019H101.332H106.666V69.3352V74.6684H111.999H117.332V85.335V96.0015H106.666H95.999V101.335V106.668H74.6659H53.3328V112.001V117.335H47.9995H42.6662V106.668V96.0015H47.9995H53.3328V90.6683V85.335H42.6662H31.9997V90.6683V96.0015H26.6664H21.3331V90.6683V85.335H10.6666H0V96.0015V106.668H5.33328H10.6666V101.335V96.0015H15.9998H21.3331V101.335V106.668H26.6664H31.9997V117.335V128.001H26.6664H21.3331V122.668V117.335H10.6666H0V122.668V128.001H10.6666H21.3331V133.335V138.668H10.6666H0V160.001V181.334H5.33328H10.6666V170.667V160.001H15.9998H21.3331V170.667V181.334H26.6664H31.9997V170.667V160.001H58.6661H85.3325V165.334V170.667H63.9994H42.6662V176.001V181.334H63.9994H85.3325V186.667V192.001H90.6658H95.999V202.667V213.334H90.6658H85.3325V224V234.667H90.6658H95.999V224V213.334H101.332H106.666V229.334V245.333H95.999H85.3325V256V266.667H90.6658H95.999V261.333V256H101.332H106.666V261.333V266.667H111.999H117.332V261.333V256H111.999H106.666V250.667V245.333H127.999H149.332V256V266.667H154.665H159.998V245.333V224H165.332H170.665V229.334V234.667H175.998H181.332V245.333V256H175.998H170.665V261.333V266.667H175.998H181.332V261.333V256H186.665H191.998V261.333V266.667H197.331H202.665V261.333V256H213.331H223.998V261.333V266.667H229.331H234.664V261.333V256H245.331H255.997V261.333V266.667H261.331H266.664V250.667V234.667H239.998H213.331V240V245.333H202.665H191.998V240V234.667H197.331H202.665V229.334V224H213.331H223.998V197.334V170.667H229.331H234.664V181.334V192.001H245.331H255.997V208V224H261.331H266.664V208V192.001H261.331H255.997V181.334V170.667H261.331H266.664V160.001V149.334H261.331H255.997V144.001V138.668H261.331H266.664V122.668V106.668H261.331H255.997V101.335V96.0015H261.331H266.664V90.6683V85.335H261.331H255.997V90.6683V96.0015H229.331H202.665V90.6683V85.335H197.331H191.998V90.6683V96.0015H197.331H202.665V101.335V106.668H197.331H191.998V122.668V138.668H202.665H213.331V149.334V160.001H207.998H202.665V165.334V170.667H186.665H170.665V186.667V202.667H165.332H159.998V197.334V192.001H154.665H149.332V181.334V170.667H154.665H159.998V165.334V160.001H165.332H170.665V154.668V149.334H175.998H181.332V154.668V160.001H186.665H191.998V154.668V149.334H186.665H181.332V128.001V106.668H175.998H170.665V90.6683V74.6684H175.998H181.332V42.6688V10.6691H175.998H170.665V16.0024V21.3356H165.332H159.998V32.0022V42.6688H154.665H149.332V32.0022V21.3356H138.665H127.999V26.6689V32.0022H122.665H117.332V16.0024V0.00251299H111.999H106.666V5.33579V10.6691H101.332H95.999V5.33579V0.00251299H90.6658H85.3325V5.33579ZM117.332 37.3355V42.6688H127.999H138.665V53.3353V64.0019H143.999H149.332V58.6686V53.3353H154.665H159.998V48.002V42.6688H165.332H170.665V58.6686V74.6684H165.332H159.998V80.0017V85.335H154.665H149.332V90.6683V96.0015H143.999H138.665V90.6683V85.335H133.332H127.999V80.0017V74.6684H122.665H117.332V69.3352V64.0019H111.999H106.666V48.002V32.0022H111.999H117.332V37.3355ZM106.666 112.001V117.335H111.999H117.332V122.668V128.001H122.665H127.999V117.335V106.668H133.332H138.665V112.001V117.335H143.999H149.332V112.001V106.668H154.665H159.998V112.001V117.335H165.332H170.665V122.668V128.001H165.332H159.998V138.668V149.334H154.665H149.332V160.001V170.667H138.665H127.999V176.001V181.334H133.332H138.665V192.001V202.667H133.332H127.999V197.334V192.001H122.665H117.332V186.667V181.334H111.999H106.666V186.667V192.001H101.332H95.999V186.667V181.334H101.332H106.666V176.001V170.667H117.332H127.999V165.334V160.001H111.999H95.999V154.668V149.334H74.6659H53.3328V138.668V128.001H58.6661H63.9994V122.668V117.335H79.9992H95.999V112.001V106.668H101.332H106.666V112.001ZM223.998 112.001V117.335H213.331H202.665V112.001V106.668H213.331H223.998V112.001ZM255.997 112.001V117.335H245.331H234.664V112.001V106.668H245.331H255.997V112.001ZM42.6662 138.668V149.334H37.333H31.9997V154.668V160.001H26.6664H21.3331V154.668V149.334H26.6664H31.9997V138.668V128.001H37.333H42.6662V138.668ZM255.997 133.335V138.668H250.664H245.331V144.001V149.334H234.664H223.998V144.001V138.668H218.664H213.331V133.335V128.001H234.664H255.997V133.335ZM223.998 165.334V170.667H218.664H213.331V165.334V160.001H218.664H223.998V165.334ZM255.997 165.334V170.667H250.664H245.331V165.334V160.001H250.664H255.997V165.334ZM213.331 197.334V213.334H197.331H181.332V197.334V181.334H197.331H213.331V197.334ZM159.998 208V213.334H154.665H149.332V224V234.667H138.665H127.999V229.334V224H122.665H117.332V218.667V213.334H122.665H127.999V218.667V224H133.332H138.665V218.667V213.334H143.999H149.332V208V202.667H154.665H159.998V208ZM234.664 250.667V256H229.331H223.998V250.667V245.333H229.331H234.664V250.667Z" fill="white"/>
<path d="M117.332 58.6686V64.0018H122.665H127.999V69.3351V74.6684H133.332H138.665V80.0017V85.335H143.999H149.332V80.0017V74.6684H154.665H159.998V69.3351V64.0018H154.665H149.332V69.3351V74.6684H143.999H138.665V69.3351V64.0018H133.332H127.999V58.6686V53.3353H122.665H117.332V58.6686Z" fill="white"/>
<path d="M149.332 122.668V128.001H154.665H159.998V122.668V117.335H154.665H149.332V122.668Z" fill="white"/>
<path d="M63.9994 133.335V138.668H69.3327H74.666V133.335V128.001H69.3327H63.9994V133.335Z" fill="white"/>
<path d="M95.999 138.668V149.334H101.332H106.666V144.001V138.668H111.999H117.332V144.001V149.334H122.665H127.999V144.001V138.668H133.332H138.665V144.001V149.334H143.999H149.332V144.001V138.668H143.999H138.665V133.335V128.001H133.332H127.999V133.335V138.668H122.665H117.332V133.335V128.001H106.666H95.999V138.668Z" fill="white"/>
<path d="M191.998 197.334V202.667H197.331H202.665V197.334V192H197.331H191.998V197.334Z" fill="white"/>
<path d="M149.332 5.33567V10.6689H154.665H159.998V5.33567V0.00238478H154.665H149.332V5.33567Z" fill="white"/>
<path d="M191.998 37.3355V74.6685H229.331H266.664V37.3355V0.00253332H229.331H191.998V37.3355ZM255.997 37.3355V64.0019H229.331H202.665V37.3355V10.6691H229.331H255.997V37.3355Z" fill="white"/>
<path d="M213.331 37.3356V53.3354H229.331H245.331V37.3356V21.3358H229.331H213.331V37.3356Z" fill="white"/>
<path d="M63.9994 90.6682V96.0015H69.3327H74.666V90.6682V85.3349H69.3327H63.9994V90.6682Z" fill="white"/>
<path d="M0 229.334V266.667H37.333H74.6659V229.334V192.001H37.333H0V229.334ZM63.9994 229.334V256H37.333H10.6666V229.334V202.667H37.333H63.9994V229.334Z" fill="white"/>
<path d="M21.3331 229.334V245.333H37.333H53.3328V229.334V213.334H37.333H21.3331V229.334Z" fill="white"/>
<path d="M127.999 261.333V266.667H133.332H138.665V261.333V256H133.332H127.999V261.333Z" fill="white"/>
</svg>
