<svg width="300" height="300" viewBox="0 0 300 300" fill="none" xmlns="http://www.w3.org/2000/svg">
<path d="M114.24 34H106V42.24H114.24V34Z" fill="white"/>
<path d="M162.24 34H154V42.24H162.24V34Z" fill="white"/>
<path d="M170.24 34H162V42.24H170.24V34Z" fill="white"/>
<path d="M178.24 34H170V42.24H178.24V34Z" fill="white"/>
<path d="M186.24 34H178V42.24H186.24V34Z" fill="white"/>
<path d="M194.24 34H186V42.24H194.24V34Z" fill="white"/>
<path d="M106.24 42H98V50.24H106.24V42Z" fill="white"/>
<path d="M114.24 42H106V50.24H114.24V42Z" fill="white"/>
<path d="M130.24 42H122V50.24H130.24V42Z" fill="white"/>
<path d="M138.24 42H130V50.24H138.24V42Z" fill="white"/>
<path d="M178.24 42H170V50.24H178.24V42Z" fill="white"/>
<path d="M202.24 42H194V50.24H202.24V42Z" fill="white"/>
<path d="M114.24 50H106V58.24H114.24V50Z" fill="white"/>
<path d="M122.24 50H114V58.24H122.24V50Z" fill="white"/>
<path d="M130.24 50H122V58.24H130.24V50Z" fill="white"/>
<path d="M154.24 50H146V58.24H154.24V50Z" fill="white"/>
<path d="M170.24 50H162V58.24H170.24V50Z" fill="white"/>
<path d="M186.24 50H178V58.24H186.24V50Z" fill="white"/>
<path d="M194.24 50H186V58.24H194.24V50Z" fill="white"/>
<path d="M106.24 58H98V66.24H106.24V58Z" fill="white"/>
<path d="M114.24 58H106V66.24H114.24V58Z" fill="white"/>
<path d="M130.24 58H122V66.24H130.24V58Z" fill="white"/>
<path d="M178.24 58H170V66.24H178.24V58Z" fill="white"/>
<path d="M122.24 66H114V74.24H122.24V66Z" fill="white"/>
<path d="M138.24 66H130V74.24H138.24V66Z" fill="white"/>
<path d="M146.24 66H138V74.24H146.24V66Z" fill="white"/>
<path d="M154.24 66H146V74.24H154.24V66Z" fill="white"/>
<path d="M162.24 66H154V74.24H162.24V66Z" fill="white"/>
<path d="M186.24 66H178V74.24H186.24V66Z" fill="white"/>
<path d="M194.24 66H186V74.24H194.24V66Z" fill="white"/>
<path d="M202.24 66H194V74.24H202.24V66Z" fill="white"/>
<path d="M106.24 74H98V82.24H106.24V74Z" fill="white"/>
<path d="M122.24 74H114V82.24H122.24V74Z" fill="white"/>
<path d="M146.24 74H138V82.24H146.24V74Z" fill="white"/>
<path d="M154.24 74H146V82.24H154.24V74Z" fill="white"/>
<path d="M162.24 74H154V82.24H162.24V74Z" fill="white"/>
<path d="M170.24 74H162V82.24H170.24V74Z" fill="white"/>
<path d="M178.24 74H170V82.24H178.24V74Z" fill="white"/>
<path d="M186.24 74H178V82.24H186.24V74Z" fill="white"/>
<path d="M202.24 74H194V82.24H202.24V74Z" fill="white"/>
<path d="M106.24 82H98V90.24H106.24V82Z" fill="white"/>
<path d="M122.24 82H114V90.24H122.24V82Z" fill="white"/>
<path d="M138.24 82H130V90.24H138.24V82Z" fill="white"/>
<path d="M154.24 82H146V90.24H154.24V82Z" fill="white"/>
<path d="M170.24 82H162V90.24H170.24V82Z" fill="white"/>
<path d="M186.24 82H178V90.24H186.24V82Z" fill="white"/>
<path d="M202.24 82H194V90.24H202.24V82Z" fill="white"/>
<path d="M138.24 90H130V98.24H138.24V90Z" fill="white"/>
<path d="M146.24 90H138V98.24H146.24V90Z" fill="white"/>
<path d="M42.24 98H34V106.24H42.24V98Z" fill="white"/>
<path d="M50.24 98H42V106.24H50.24V98Z" fill="white"/>
<path d="M58.24 98H50V106.24H58.24V98Z" fill="white"/>
<path d="M66.24 98H58V106.24H66.24V98Z" fill="white"/>
<path d="M74.24 98H66V106.24H74.24V98Z" fill="white"/>
<path d="M90.24 98H82V106.24H90.24V98Z" fill="white"/>
<path d="M98.24 98H90V106.24H98.24V98Z" fill="white"/>
<path d="M106.24 98H98V106.24H106.24V98Z" fill="white"/>
<path d="M114.24 98H106V106.24H114.24V98Z" fill="white"/>
<path d="M122.24 98H114V106.24H122.24V98Z" fill="white"/>
<path d="M138.24 98H130V106.24H138.24V98Z" fill="white"/>
<path d="M154.24 98H146V106.24H154.24V98Z" fill="white"/>
<path d="M162.24 98H154V106.24H162.24V98Z" fill="white"/>
<path d="M170.24 98H162V106.24H170.24V98Z" fill="white"/>
<path d="M178.24 98H170V106.24H178.24V98Z" fill="white"/>
<path d="M194.24 98H186V106.24H194.24V98Z" fill="white"/>
<path d="M210.24 98H202V106.24H210.24V98Z" fill="white"/>
<path d="M226.24 98H218V106.24H226.24V98Z" fill="white"/>
<path d="M242.24 98H234V106.24H242.24V98Z" fill="white"/>
<path d="M258.24 98H250V106.24H258.24V98Z" fill="white"/>
<path d="M50.24 106H42V114.24H50.24V106Z" fill="white"/>
<path d="M74.24 106H66V114.24H74.24V106Z" fill="white"/>
<path d="M82.24 106H74V114.24H82.24V106Z" fill="white"/>
<path d="M98.24 106H90V114.24H98.24V106Z" fill="white"/>
<path d="M114.24 106H106V114.24H114.24V106Z" fill="white"/>
<path d="M170.24 106H162V114.24H170.24V106Z" fill="white"/>
<path d="M178.24 106H170V114.24H178.24V106Z" fill="white"/>
<path d="M186.24 106H178V114.24H186.24V106Z" fill="white"/>
<path d="M194.24 106H186V114.24H194.24V106Z" fill="white"/>
<path d="M202.24 106H194V114.24H202.24V106Z" fill="white"/>
<path d="M210.24 106H202V114.24H210.24V106Z" fill="white"/>
<path d="M218.24 106H210V114.24H218.24V106Z" fill="white"/>
<path d="M226.24 106H218V114.24H226.24V106Z" fill="white"/>
<path d="M234.24 106H226V114.24H234.24V106Z" fill="white"/>
<path d="M266.24 106H258V114.24H266.24V106Z" fill="white"/>
<path d="M42.24 114H34V122.24H42.24V114Z" fill="white"/>
<path d="M50.24 114H42V122.24H50.24V114Z" fill="white"/>
<path d="M58.24 114H50V122.24H58.24V114Z" fill="white"/>
<path d="M82.24 114H74V122.24H82.24V114Z" fill="white"/>
<path d="M90.24 114H82V122.24H90.24V114Z" fill="white"/>
<path d="M98.24 114H90V122.24H98.24V114Z" fill="white"/>
<path d="M106.24 114H98V122.24H106.24V114Z" fill="white"/>
<path d="M114.24 114H106V122.24H114.24V114Z" fill="white"/>
<path d="M130.24 114H122V122.24H130.24V114Z" fill="white"/>
<path d="M138.24 114H130V122.24H138.24V114Z" fill="white"/>
<path d="M162.24 114H154V122.24H162.24V114Z" fill="white"/>
<path d="M178.24 114H170V122.24H178.24V114Z" fill="white"/>
<path d="M218.24 114H210V122.24H218.24V114Z" fill="white"/>
<path d="M234.24 114H226V122.24H234.24V114Z" fill="white"/>
<path d="M42.24 122H34V130.24H42.24V122Z" fill="white"/>
<path d="M50.24 122H42V130.24H50.24V122Z" fill="white"/>
<path d="M66.24 122H58V130.24H66.24V122Z" fill="white"/>
<path d="M74.24 122H66V130.24H74.24V122Z" fill="white"/>
<path d="M82.24 122H74V130.24H82.24V122Z" fill="white"/>
<path d="M114.24 122H106V130.24H114.24V122Z" fill="white"/>
<path d="M122.24 122H114V130.24H122.24V122Z" fill="white"/>
<path d="M130.24 122H122V130.24H130.24V122Z" fill="white"/>
<path d="M154.24 122H146V130.24H154.24V122Z" fill="white"/>
<path d="M162.24 122H154V130.24H162.24V122Z" fill="white"/>
<path d="M170.24 122H162V130.24H170.24V122Z" fill="white"/>
<path d="M194.24 122H186V130.24H194.24V122Z" fill="white"/>
<path d="M202.24 122H194V130.24H202.24V122Z" fill="white"/>
<path d="M226.24 122H218V130.24H226.24V122Z" fill="white"/>
<path d="M234.24 122H226V130.24H234.24V122Z" fill="white"/>
<path d="M258.24 122H250V130.24H258.24V122Z" fill="white"/>
<path d="M50.24 130H42V138.24H50.24V130Z" fill="white"/>
<path d="M58.24 130H50V138.24H58.24V130Z" fill="white"/>
<path d="M74.24 130H66V138.24H74.24V130Z" fill="white"/>
<path d="M82.24 130H74V138.24H82.24V130Z" fill="white"/>
<path d="M90.24 130H82V138.24H90.24V130Z" fill="white"/>
<path d="M106.24 130H98V138.24H106.24V130Z" fill="white"/>
<path d="M114.24 130H106V138.24H114.24V130Z" fill="white"/>
<path d="M130.24 130H122V138.24H130.24V130Z" fill="white"/>
<path d="M162.24 130H154V138.24H162.24V130Z" fill="white"/>
<path d="M170.24 130H162V138.24H170.24V130Z" fill="white"/>
<path d="M178.24 130H170V138.24H178.24V130Z" fill="white"/>
<path d="M202.24 130H194V138.24H202.24V130Z" fill="white"/>
<path d="M242.24 130H234V138.24H242.24V130Z" fill="white"/>
<path d="M250.24 130H242V138.24H250.24V130Z" fill="white"/>
<path d="M42.24 138H34V146.24H42.24V138Z" fill="white"/>
<path d="M58.24 138H50V146.24H58.24V138Z" fill="white"/>
<path d="M114.24 138H106V146.24H114.24V138Z" fill="white"/>
<path d="M122.24 138H114V146.24H122.24V138Z" fill="white"/>
<path d="M138.24 138H130V146.24H138.24V138Z" fill="white"/>
<path d="M146.24 138H138V146.24H146.24V138Z" fill="white"/>
<path d="M154.24 138H146V146.24H154.24V138Z" fill="white"/>
<path d="M170.24 138H162V146.24H170.24V138Z" fill="white"/>
<path d="M178.24 138H170V146.24H178.24V138Z" fill="white"/>
<path d="M186.24 138H178V146.24H186.24V138Z" fill="white"/>
<path d="M194.24 138H186V146.24H194.24V138Z" fill="white"/>
<path d="M202.24 138H194V146.24H202.24V138Z" fill="white"/>
<path d="M210.24 138H202V146.24H210.24V138Z" fill="white"/>
<path d="M218.24 138H210V146.24H218.24V138Z" fill="white"/>
<path d="M226.24 138H218V146.24H226.24V138Z" fill="white"/>
<path d="M234.24 138H226V146.24H234.24V138Z" fill="white"/>
<path d="M250.24 138H242V146.24H250.24V138Z" fill="white"/>
<path d="M266.24 138H258V146.24H266.24V138Z" fill="white"/>
<path d="M58.24 146H50V154.24H58.24V146Z" fill="white"/>
<path d="M66.24 146H58V154.24H66.24V146Z" fill="white"/>
<path d="M90.24 146H82V154.24H90.24V146Z" fill="white"/>
<path d="M98.24 146H90V154.24H98.24V146Z" fill="white"/>
<path d="M122.24 146H114V154.24H122.24V146Z" fill="white"/>
<path d="M146.24 146H138V154.24H146.24V146Z" fill="white"/>
<path d="M154.24 146H146V154.24H154.24V146Z" fill="white"/>
<path d="M162.24 146H154V154.24H162.24V146Z" fill="white"/>
<path d="M170.24 146H162V154.24H170.24V146Z" fill="white"/>
<path d="M202.24 146H194V154.24H202.24V146Z" fill="white"/>
<path d="M210.24 146H202V154.24H210.24V146Z" fill="white"/>
<path d="M226.24 146H218V154.24H226.24V146Z" fill="white"/>
<path d="M234.24 146H226V154.24H234.24V146Z" fill="white"/>
<path d="M250.24 146H242V154.24H250.24V146Z" fill="white"/>
<path d="M66.24 154H58V162.24H66.24V154Z" fill="white"/>
<path d="M82.24 154H74V162.24H82.24V154Z" fill="white"/>
<path d="M114.24 154H106V162.24H114.24V154Z" fill="white"/>
<path d="M138.24 154H130V162.24H138.24V154Z" fill="white"/>
<path d="M146.24 154H138V162.24H146.24V154Z" fill="white"/>
<path d="M194.24 154H186V162.24H194.24V154Z" fill="white"/>
<path d="M202.24 154H194V162.24H202.24V154Z" fill="white"/>
<path d="M234.24 154H226V162.24H234.24V154Z" fill="white"/>
<path d="M258.24 154H250V162.24H258.24V154Z" fill="white"/>
<path d="M50.24 162H42V170.24H50.24V162Z" fill="white"/>
<path d="M58.24 162H50V170.24H58.24V162Z" fill="white"/>
<path d="M66.24 162H58V170.24H66.24V162Z" fill="white"/>
<path d="M74.24 162H66V170.24H74.24V162Z" fill="white"/>
<path d="M82.24 162H74V170.24H82.24V162Z" fill="white"/>
<path d="M90.24 162H82V170.24H90.24V162Z" fill="white"/>
<path d="M106.24 162H98V170.24H106.24V162Z" fill="white"/>
<path d="M122.24 162H114V170.24H122.24V162Z" fill="white"/>
<path d="M138.24 162H130V170.24H138.24V162Z" fill="white"/>
<path d="M154.24 162H146V170.24H154.24V162Z" fill="white"/>
<path d="M162.24 162H154V170.24H162.24V162Z" fill="white"/>
<path d="M178.24 162H170V170.24H178.24V162Z" fill="white"/>
<path d="M186.24 162H178V170.24H186.24V162Z" fill="white"/>
<path d="M194.24 162H186V170.24H194.24V162Z" fill="white"/>
<path d="M250.24 162H242V170.24H250.24V162Z" fill="white"/>
<path d="M42.24 170H34V178.24H42.24V170Z" fill="white"/>
<path d="M58.24 170H50V178.24H58.24V170Z" fill="white"/>
<path d="M66.24 170H58V178.24H66.24V170Z" fill="white"/>
<path d="M74.24 170H66V178.24H74.24V170Z" fill="white"/>
<path d="M106.24 170H98V178.24H106.24V170Z" fill="white"/>
<path d="M114.24 170H106V178.24H114.24V170Z" fill="white"/>
<path d="M122.24 170H114V178.24H122.24V170Z" fill="white"/>
<path d="M170.24 170H162V178.24H170.24V170Z" fill="white"/>
<path d="M178.24 170H170V178.24H178.24V170Z" fill="white"/>
<path d="M186.24 170H178V178.24H186.24V170Z" fill="white"/>
<path d="M194.24 170H186V178.24H194.24V170Z" fill="white"/>
<path d="M202.24 170H194V178.24H202.24V170Z" fill="white"/>
<path d="M218.24 170H210V178.24H218.24V170Z" fill="white"/>
<path d="M226.24 170H218V178.24H226.24V170Z" fill="white"/>
<path d="M234.24 170H226V178.24H234.24V170Z" fill="white"/>
<path d="M242.24 170H234V178.24H242.24V170Z" fill="white"/>
<path d="M250.24 170H242V178.24H250.24V170Z" fill="white"/>
<path d="M266.24 170H258V178.24H266.24V170Z" fill="white"/>
<path d="M42.24 178H34V186.24H42.24V178Z" fill="white"/>
<path d="M82.24 178H74V186.24H82.24V178Z" fill="white"/>
<path d="M90.24 178H82V186.24H90.24V178Z" fill="white"/>
<path d="M98.24 178H90V186.24H98.24V178Z" fill="white"/>
<path d="M106.24 178H98V186.24H106.24V178Z" fill="white"/>
<path d="M122.24 178H114V186.24H122.24V178Z" fill="white"/>
<path d="M130.24 178H122V186.24H130.24V178Z" fill="white"/>
<path d="M138.24 178H130V186.24H138.24V178Z" fill="white"/>
<path d="M162.24 178H154V186.24H162.24V178Z" fill="white"/>
<path d="M170.24 178H162V186.24H170.24V178Z" fill="white"/>
<path d="M178.24 178H170V186.24H178.24V178Z" fill="white"/>
<path d="M202.24 178H194V186.24H202.24V178Z" fill="white"/>
<path d="M210.24 178H202V186.24H210.24V178Z" fill="white"/>
<path d="M242.24 178H234V186.24H242.24V178Z" fill="white"/>
<path d="M250.24 178H242V186.24H250.24V178Z" fill="white"/>
<path d="M42.24 186H34V194.24H42.24V186Z" fill="white"/>
<path d="M114.24 186H106V194.24H114.24V186Z" fill="white"/>
<path d="M130.24 186H122V194.24H130.24V186Z" fill="white"/>
<path d="M154.24 186H146V194.24H154.24V186Z" fill="white"/>
<path d="M162.24 186H154V194.24H162.24V186Z" fill="white"/>
<path d="M170.24 186H162V194.24H170.24V186Z" fill="white"/>
<path d="M194.24 186H186V194.24H194.24V186Z" fill="white"/>
<path d="M210.24 186H202V194.24H210.24V186Z" fill="white"/>
<path d="M218.24 186H210V194.24H218.24V186Z" fill="white"/>
<path d="M226.24 186H218V194.24H226.24V186Z" fill="white"/>
<path d="M258.24 186H250V194.24H258.24V186Z" fill="white"/>
<path d="M42.24 194H34V202.24H42.24V194Z" fill="white"/>
<path d="M74.24 194H66V202.24H74.24V194Z" fill="white"/>
<path d="M82.24 194H74V202.24H82.24V194Z" fill="white"/>
<path d="M90.24 194H82V202.24H90.24V194Z" fill="white"/>
<path d="M98.24 194H90V202.24H98.24V194Z" fill="white"/>
<path d="M130.24 194H122V202.24H130.24V194Z" fill="white"/>
<path d="M162.24 194H154V202.24H162.24V194Z" fill="white"/>
<path d="M178.24 194H170V202.24H178.24V194Z" fill="white"/>
<path d="M194.24 194H186V202.24H194.24V194Z" fill="white"/>
<path d="M202.24 194H194V202.24H202.24V194Z" fill="white"/>
<path d="M210.24 194H202V202.24H210.24V194Z" fill="white"/>
<path d="M218.24 194H210V202.24H218.24V194Z" fill="white"/>
<path d="M226.24 194H218V202.24H226.24V194Z" fill="white"/>
<path d="M234.24 194H226V202.24H234.24V194Z" fill="white"/>
<path d="M250.24 194H242V202.24H250.24V194Z" fill="white"/>
<path d="M258.24 194H250V202.24H258.24V194Z" fill="white"/>
<path d="M266.24 194H258V202.24H266.24V194Z" fill="white"/>
<path d="M106.24 202H98V210.24H106.24V202Z" fill="white"/>
<path d="M114.24 202H106V210.24H114.24V202Z" fill="white"/>
<path d="M122.24 202H114V210.24H122.24V202Z" fill="white"/>
<path d="M138.24 202H130V210.24H138.24V202Z" fill="white"/>
<path d="M146.24 202H138V210.24H146.24V202Z" fill="white"/>
<path d="M154.24 202H146V210.24H154.24V202Z" fill="white"/>
<path d="M170.24 202H162V210.24H170.24V202Z" fill="white"/>
<path d="M202.24 202H194V210.24H202.24V202Z" fill="white"/>
<path d="M234.24 202H226V210.24H234.24V202Z" fill="white"/>
<path d="M242.24 202H234V210.24H242.24V202Z" fill="white"/>
<path d="M250.24 202H242V210.24H250.24V202Z" fill="white"/>
<path d="M258.24 202H250V210.24H258.24V202Z" fill="white"/>
<path d="M266.24 202H258V210.24H266.24V202Z" fill="white"/>
<path d="M106.24 210H98V218.24H106.24V210Z" fill="white"/>
<path d="M146.24 210H138V218.24H146.24V210Z" fill="white"/>
<path d="M154.24 210H146V218.24H154.24V210Z" fill="white"/>
<path d="M162.24 210H154V218.24H162.24V210Z" fill="white"/>
<path d="M186.24 210H178V218.24H186.24V210Z" fill="white"/>
<path d="M194.24 210H186V218.24H194.24V210Z" fill="white"/>
<path d="M202.24 210H194V218.24H202.24V210Z" fill="white"/>
<path d="M218.24 210H210V218.24H218.24V210Z" fill="white"/>
<path d="M234.24 210H226V218.24H234.24V210Z" fill="white"/>
<path d="M242.24 210H234V218.24H242.24V210Z" fill="white"/>
<path d="M250.24 210H242V218.24H250.24V210Z" fill="white"/>
<path d="M114.24 218H106V226.24H114.24V218Z" fill="white"/>
<path d="M122.24 218H114V226.24H122.24V218Z" fill="white"/>
<path d="M138.24 218H130V226.24H138.24V218Z" fill="white"/>
<path d="M146.24 218H138V226.24H146.24V218Z" fill="white"/>
<path d="M186.24 218H178V226.24H186.24V218Z" fill="white"/>
<path d="M194.24 218H186V226.24H194.24V218Z" fill="white"/>
<path d="M202.24 218H194V226.24H202.24V218Z" fill="white"/>
<path d="M234.24 218H226V226.24H234.24V218Z" fill="white"/>
<path d="M242.24 218H234V226.24H242.24V218Z" fill="white"/>
<path d="M266.24 218H258V226.24H266.24V218Z" fill="white"/>
<path d="M106.24 226H98V234.24H106.24V226Z" fill="white"/>
<path d="M138.24 226H130V234.24H138.24V226Z" fill="white"/>
<path d="M154.24 226H146V234.24H154.24V226Z" fill="white"/>
<path d="M178.24 226H170V234.24H178.24V226Z" fill="white"/>
<path d="M202.24 226H194V234.24H202.24V226Z" fill="white"/>
<path d="M210.24 226H202V234.24H210.24V226Z" fill="white"/>
<path d="M218.24 226H210V234.24H218.24V226Z" fill="white"/>
<path d="M226.24 226H218V234.24H226.24V226Z" fill="white"/>
<path d="M234.24 226H226V234.24H234.24V226Z" fill="white"/>
<path d="M250.24 226H242V234.24H250.24V226Z" fill="white"/>
<path d="M258.24 226H250V234.24H258.24V226Z" fill="white"/>
<path d="M106.24 234H98V242.24H106.24V234Z" fill="white"/>
<path d="M122.24 234H114V242.24H122.24V234Z" fill="white"/>
<path d="M170.24 234H162V242.24H170.24V234Z" fill="white"/>
<path d="M202.24 234H194V242.24H202.24V234Z" fill="white"/>
<path d="M242.24 234H234V242.24H242.24V234Z" fill="white"/>
<path d="M250.24 234H242V242.24H250.24V234Z" fill="white"/>
<path d="M258.24 234H250V242.24H258.24V234Z" fill="white"/>
<path d="M266.24 234H258V242.24H266.24V234Z" fill="white"/>
<path d="M106.24 242H98V250.24H106.24V242Z" fill="white"/>
<path d="M114.24 242H106V250.24H114.24V242Z" fill="white"/>
<path d="M122.24 242H114V250.24H122.24V242Z" fill="white"/>
<path d="M130.24 242H122V250.24H130.24V242Z" fill="white"/>
<path d="M138.24 242H130V250.24H138.24V242Z" fill="white"/>
<path d="M162.24 242H154V250.24H162.24V242Z" fill="white"/>
<path d="M170.24 242H162V250.24H170.24V242Z" fill="white"/>
<path d="M178.24 242H170V250.24H178.24V242Z" fill="white"/>
<path d="M186.24 242H178V250.24H186.24V242Z" fill="white"/>
<path d="M194.24 242H186V250.24H194.24V242Z" fill="white"/>
<path d="M202.24 242H194V250.24H202.24V242Z" fill="white"/>
<path d="M210.24 242H202V250.24H210.24V242Z" fill="white"/>
<path d="M218.24 242H210V250.24H218.24V242Z" fill="white"/>
<path d="M226.24 242H218V250.24H226.24V242Z" fill="white"/>
<path d="M234.24 242H226V250.24H234.24V242Z" fill="white"/>
<path d="M250.24 242H242V250.24H250.24V242Z" fill="white"/>
<path d="M258.24 242H250V250.24H258.24V242Z" fill="white"/>
<path d="M106.24 250H98V258.24H106.24V250Z" fill="white"/>
<path d="M114.24 250H106V258.24H114.24V250Z" fill="white"/>
<path d="M122.24 250H114V258.24H122.24V250Z" fill="white"/>
<path d="M130.24 250H122V258.24H130.24V250Z" fill="white"/>
<path d="M154.24 250H146V258.24H154.24V250Z" fill="white"/>
<path d="M170.24 250H162V258.24H170.24V250Z" fill="white"/>
<path d="M186.24 250H178V258.24H186.24V250Z" fill="white"/>
<path d="M202.24 250H194V258.24H202.24V250Z" fill="white"/>
<path d="M210.24 250H202V258.24H210.24V250Z" fill="white"/>
<path d="M218.24 250H210V258.24H218.24V250Z" fill="white"/>
<path d="M226.24 250H218V258.24H226.24V250Z" fill="white"/>
<path d="M234.24 250H226V258.24H234.24V250Z" fill="white"/>
<path d="M242.24 250H234V258.24H242.24V250Z" fill="white"/>
<path d="M258.24 250H250V258.24H258.24V250Z" fill="white"/>
<path d="M106.24 258H98V266.24H106.24V258Z" fill="white"/>
<path d="M130.24 258H122V266.24H130.24V258Z" fill="white"/>
<path d="M178.24 258H170V266.24H178.24V258Z" fill="white"/>
<path d="M194.24 258H186V266.24H194.24V258Z" fill="white"/>
<path d="M226.24 258H218V266.24H226.24V258Z" fill="white"/>
<path d="M234.24 258H226V266.24H234.24V258Z" fill="white"/>
<path d="M250.24 258H242V266.24H250.24V258Z" fill="white"/>
<path d="M34 34V90H90V34H34ZM82 82H42V42H82V82Z" fill="white"/>
<path d="M210 34V90H266V34H210ZM258 82H218V42H258V82Z" fill="white"/>
<path d="M34 210V266H90V210H34ZM82 258H42V218H82V258Z" fill="white"/>
<path d="M74 50H50V74H74V50Z" fill="white"/>
<path d="M250 50H226V74H250V50Z" fill="white"/>
<path d="M74 226H50V250H74V226Z" fill="white"/>
</svg>
