<svg width="267" height="267" viewBox="0 0 267 267" fill="none" xmlns="http://www.w3.org/2000/svg">
<path d="M266.667 0.00341797H0V266.67H266.667V0.00341797Z" fill="black"/>
<path d="M0 32.1845V64.3688H32.1843H64.3686V32.1845V0.000128269H32.1843H0V32.1845ZM55.1731 32.1845V55.1733H32.1843H9.19552V32.1845V9.19565H32.1843H55.1731V32.1845Z" fill="white"/>
<path d="M18.3906 32.1844V45.9777H32.1839H45.9772V32.1844V18.3911H32.1839H18.3906V32.1844Z" fill="white"/>
<path d="M73.5645 18.3912V36.7822H82.76H91.9555V32.1845V27.5867H96.5533H101.151V32.1845V36.7822H105.749H110.347V27.5867V18.3912H105.749H101.151V9.19567V0.000146627H87.3577H73.5645V18.3912ZM91.9555 22.9889V27.5867H87.3577H82.76V22.9889V18.3912H87.3577H91.9555V22.9889Z" fill="white"/>
<path d="M110.347 4.5978V9.19556H114.944H119.542V4.5978V3.66569e-05H114.944H110.347V4.5978Z" fill="white"/>
<path d="M128.737 4.5978V9.19556H133.335H137.933V4.5978V3.66569e-05H133.335H128.737V4.5978Z" fill="white"/>
<path d="M165.519 4.59782V9.19558H156.324H147.128V18.3911V27.5866H137.933H128.737V22.9889V18.3911H124.14H119.542V22.9889V27.5866H124.14H128.737V32.1844V36.7821H124.14H119.542V41.3799V45.9777H110.346H101.151V50.5754V55.1732H96.553H91.9552V59.7709V64.3687H87.3574H82.7597V55.1732V45.9777H78.1619H73.5642V55.1732V64.3687H78.1619H82.7597V68.9665V73.5642H87.3574H91.9552V68.9665V64.3687H96.553H101.151V59.7709V55.1732H105.748H110.346V64.3687V73.5642H105.748H101.151V78.162V82.7597H82.7597H64.3686V78.162V73.5642H50.5754H36.7821V78.162V82.7597H32.1843H27.5866V87.3575V91.9553H32.1843H36.7821V87.3575V82.7597H41.3798H45.9776V91.9553V101.151H55.1731H64.3686V96.553V91.9553H82.7597H101.151V96.553V101.151H96.553H91.9552V110.346V119.542H87.3574H82.7597V124.14V128.737H78.1619H73.5642V133.335V137.933H68.9664H64.3686V133.335V128.737H59.7709H55.1731V124.14V119.542H64.3686H73.5642V114.944V110.346H50.5754H27.5866V105.749V101.151H22.9888H18.391V96.553V91.9553H9.19552H0V101.151V110.346H4.59776H9.19552V124.14V137.933H4.59776H0V151.726V165.519H4.59776H9.19552V156.324V147.128H13.7933H18.391V151.726V156.324H27.5866H36.7821V160.922V165.519H32.1843H27.5866V170.117V174.715H32.1843H36.7821V170.117V165.519H41.3798H45.9776V174.715V183.91H36.7821H27.5866V188.508V193.106H36.7821H45.9776V188.508V183.91H50.5754H55.1731V188.508V193.106H64.3686H73.5642V197.704V202.302H82.7597H91.9552V206.899V211.497H82.7597H73.5642V220.693V229.888H78.1619H82.7597V225.29V220.693H87.3574H91.9552V216.095V211.497H96.553H101.151V206.899V202.302H96.553H91.9552V197.704V193.106H96.553H101.151V188.508V183.91H105.748H110.346V188.508V193.106H114.944H119.542V197.704V202.302H128.737H137.933V206.899V211.497H133.335H128.737V216.095V220.693H124.14H119.542V216.095V211.497H114.944H110.346V216.095V220.693H105.748H101.151V225.29V229.888H96.553H91.9552V234.486V239.084H96.553H101.151V248.279V257.475H105.748H110.346V262.072V266.67H119.542H128.737V257.475V248.279H137.933H147.128V257.475V266.67H156.324H165.519V252.877V239.084H160.922H156.324V234.486V229.888H160.922H165.519V225.29V220.693H170.117H174.715V225.29V229.888H179.313H183.91V248.279V266.67H188.508H193.106V262.072V257.475H197.704H202.301V262.072V266.67H211.497H220.693V262.072V257.475H225.29H229.888V262.072V266.67H234.486H239.084V257.475V248.279H243.681H248.279V257.475V266.67H252.877H257.475V262.072V257.475H262.072H266.67V243.681V229.888H262.072H257.475V225.29V220.693H262.072H266.67V188.508V156.324H262.072H257.475V151.726V147.128H262.072H266.67V133.335V119.542H262.072H257.475V114.944V110.346H262.072H266.67V91.9553V73.5642H248.279H229.888V78.162V82.7597H225.29H220.693V78.162V73.5642H216.095H211.497V78.162V82.7597H206.899H202.301V91.9553V101.151H197.704H193.106V96.553V91.9553H188.508H183.91V96.553V101.151H165.519H147.128V96.553V91.9553H151.726H156.324V87.3575V82.7597H160.922H165.519V87.3575V91.9553H170.117H174.715V87.3575V82.7597H179.313H183.91V78.162V73.5642H188.508H193.106V59.7709V45.9777H183.91H174.715V41.3799V36.7821H179.313H183.91V32.1844V27.5866H179.313H174.715V22.9889V18.3911H179.313H183.91V13.7933V9.19558H179.313H174.715V4.59782V6.05583e-05H170.117H165.519V4.59782ZM174.715 32.1844V36.7821H160.922H147.128V32.1844V27.5866H160.922H174.715V32.1844ZM156.324 50.5754V55.1732H160.922H165.519V50.5754V45.9777H170.117H174.715V50.5754V55.1732H179.313H183.91V59.7709V64.3687H179.313H174.715V73.5642V82.7597H170.117H165.519V73.5642V64.3687H160.922H156.324V68.9665V73.5642H151.726H147.128V78.162V82.7597H142.531H137.933V87.3575V91.9553H128.737H119.542V87.3575V82.7597H114.944H110.346V87.3575V91.9553H105.748H101.151V87.3575V82.7597H105.748H110.346V78.162V73.5642H114.944H119.542V64.3687V55.1732H124.14H128.737V64.3687V73.5642H124.14H119.542V78.162V82.7597H128.737H137.933V78.162V73.5642H142.531H147.128V68.9665V64.3687H142.531H137.933V55.1732V45.9777H147.128H156.324V50.5754ZM64.3686 87.3575V91.9553H59.7709H55.1731V87.3575V82.7597H59.7709H64.3686V87.3575ZM257.475 96.553V101.151H252.877H248.279V110.346V119.542H225.29H202.301V124.14V128.737H206.899H211.497V133.335V137.933H216.095H220.693V142.531V147.128H225.29H229.888V142.531V137.933H239.084H248.279V133.335V128.737H252.877H257.475V133.335V137.933H252.877H248.279V151.726V165.519H252.877H257.475V170.117V174.715H252.877H248.279V179.313V183.91H252.877H257.475V197.704V211.497H252.877H248.279V220.693V229.888H252.877H257.475V234.486V239.084H243.681H229.888V243.681V248.279H211.497H193.106V243.681V239.084H197.704H202.301V234.486V229.888H220.693H239.084V225.29V220.693H234.486H229.888V216.095V211.497H239.084H248.279V206.899V202.302H239.084H229.888V197.704V193.106H234.486H239.084V188.508V183.91H225.29H211.497V174.715V165.519H225.29H239.084V160.922V156.324H220.693H202.301V160.922V165.519H197.704H193.106V170.117V174.715H197.704H202.301V179.313V183.91H197.704H193.106V179.313V174.715H183.91H174.715V165.519V156.324H170.117H165.519V151.726V147.128H174.715H183.91V142.531V137.933H179.313H174.715V128.737V119.542H170.117H165.519V114.944V110.346H174.715H183.91V114.944V119.542H193.106H202.301V114.944V110.346H211.497H220.693V105.749V101.151H216.095H211.497V96.553V91.9553H234.486H257.475V96.553ZM119.542 105.749V110.346H114.944H110.346V114.944V119.542H114.944H119.542V124.14V128.737H128.737H137.933V133.335V137.933H133.335H128.737V142.531V147.128H124.14H119.542V151.726V156.324H128.737H137.933V151.726V147.128H142.531H147.128V137.933V128.737H156.324H165.519V133.335V137.933H160.922H156.324V147.128V156.324H147.128H137.933V160.922V165.519H128.737H119.542V160.922V156.324H114.944H110.346V160.922V165.519H105.748H101.151V160.922V156.324H105.748H110.346V151.726V147.128H105.748H101.151V137.933V128.737H96.553H91.9552V124.14V119.542H96.553H101.151V114.944V110.346H105.748H110.346V105.749V101.151H114.944H119.542V105.749ZM147.128 105.749V110.346H151.726H156.324V114.944V119.542H142.531H128.737V110.346V101.151H137.933H147.128V105.749ZM27.5866 114.944V119.542H22.9888H18.391V114.944V110.346H22.9888H27.5866V114.944ZM45.9776 128.737V137.933H55.1731H64.3686V142.531V147.128H68.9664H73.5642V151.726V156.324H78.1619H82.7597V147.128V137.933H87.3574H91.9552V147.128V156.324H87.3574H82.7597V160.922V165.519H78.1619H73.5642V160.922V156.324H68.9664H64.3686V160.922V165.519H55.1731H45.9776V160.922V156.324H41.3798H36.7821V151.726V147.128H41.3798H45.9776V142.531V137.933H36.7821H27.5866V133.335V128.737H32.1843H36.7821V124.14V119.542H41.3798H45.9776V128.737ZM64.3686 179.313V183.91H59.7709H55.1731V179.313V174.715H59.7709H64.3686V179.313ZM82.7597 179.313V183.91H87.3574H91.9552V188.508V193.106H82.7597H73.5642V183.91V174.715H78.1619H82.7597V179.313ZM119.542 179.313V183.91H114.944H110.346V179.313V174.715H114.944H119.542V179.313ZM147.128 179.313V183.91H151.726H156.324V188.508V193.106H151.726H147.128V188.508V183.91H142.531H137.933V188.508V193.106H133.335H128.737V183.91V174.715H137.933H147.128V179.313ZM183.91 188.508V193.106H179.313H174.715V188.508V183.91H179.313H183.91V188.508ZM220.693 206.899V220.693H206.899H193.106V206.899V193.106H206.899H220.693V206.899ZM165.519 206.899V211.497H160.922H156.324V220.693V229.888H151.726H147.128V225.29V220.693H142.531H137.933V216.095V211.497H142.531H147.128V206.899V202.302H156.324H165.519V206.899ZM119.542 225.29V229.888H128.737H137.933V234.486V239.084H128.737H119.542V234.486V229.888H114.944H110.346V234.486V239.084H105.748H101.151V234.486V229.888H105.748H110.346V225.29V220.693H114.944H119.542V225.29ZM119.542 252.877V257.475H114.944H110.346V252.877V248.279H114.944H119.542V252.877Z" fill="white"/>
<path d="M147.128 59.771V64.3688H151.726H156.323V59.771V55.1733H151.726H147.128V59.771Z" fill="white"/>
<path d="M165.52 59.771V64.3688H170.117H174.715V59.771V55.1733H170.117H165.52V59.771Z" fill="white"/>
<path d="M229.888 105.749V110.346H234.485H239.083V105.749V101.151H234.485H229.888V105.749Z" fill="white"/>
<path d="M183.91 133.335V137.933H188.508H193.106V133.335V128.737H188.508H183.91V133.335Z" fill="white"/>
<path d="M202.301 142.531V147.128H193.106H183.91V151.726V156.324H193.106H202.301V151.726V147.128H206.899H211.497V142.531V137.933H206.899H202.301V142.531Z" fill="white"/>
<path d="M239.084 170.117V174.715H243.682H248.28V170.117V165.519H243.682H239.084V170.117Z" fill="white"/>
<path d="M110.347 142.531V147.128H114.944H119.542V142.531V137.933H114.944H110.347V142.531Z" fill="white"/>
<path d="M55.1729 151.726V156.324H59.7706H64.3684V151.726V147.128H59.7706H55.1729V151.726Z" fill="white"/>
<path d="M202.302 206.899V211.497H206.9H211.497V206.899V202.302H206.9H202.302V206.899Z" fill="white"/>
<path d="M202.302 32.1845V64.3688H234.486H266.67V32.1845V0.000128269H234.486H202.302V32.1845ZM257.475 32.1845V55.1733H234.486H211.497V32.1845V9.19565H234.486H257.475V32.1845Z" fill="white"/>
<path d="M220.692 32.1844V45.9777H234.486H248.279V32.1844V18.3911H234.486H220.692V32.1844Z" fill="white"/>
<path d="M0 78.162V82.7598H9.19552H18.391V78.162V73.5642H9.19552H0V78.162Z" fill="white"/>
<path d="M0 188.508V193.106H9.19552H18.391V188.508V183.91H9.19552H0V188.508Z" fill="white"/>
<path d="M0 234.486V266.67H32.1843H64.3686V234.486V202.302H32.1843H0V234.486ZM55.1731 234.486V257.475H32.1843H9.19552V234.486V211.497H32.1843H55.1731V234.486Z" fill="white"/>
<path d="M18.3906 234.486V248.279H32.1839H45.9772V234.486V220.693H32.1839H18.3906V234.486Z" fill="white"/>
<path d="M73.5645 257.475V266.67H82.76H91.9555V257.475V248.279H82.76H73.5645V257.475Z" fill="white"/>
</svg>
