<svg width="301" height="301" viewBox="0 0 301 301" fill="none" xmlns="http://www.w3.org/2000/svg">
<path d="M114.077 0H103.424V10.6527H114.077V0Z" fill="black"/>
<path d="M134.762 0H124.109V10.6527H134.762V0Z" fill="black"/>
<path d="M145.104 0H134.451V10.6527H145.104V0Z" fill="black"/>
<path d="M196.816 0H186.163V10.6527H196.816V0Z" fill="black"/>
<path d="M207.158 0H196.505V10.6527H207.158V0Z" fill="black"/>
<path d="M217.501 0H206.848V10.6527H217.501V0Z" fill="black"/>
<path d="M93.3917 10.3424H82.739V20.9951H93.3917V10.3424Z" fill="black"/>
<path d="M114.077 10.3424H103.424V20.9951H114.077V10.3424Z" fill="black"/>
<path d="M145.104 10.3424H134.451V20.9951H145.104V10.3424Z" fill="black"/>
<path d="M155.447 10.3424H144.794V20.9951H155.447V10.3424Z" fill="black"/>
<path d="M165.789 10.3424H155.136V20.9951H165.789V10.3424Z" fill="black"/>
<path d="M186.473 10.3424H175.821V20.9951H186.473V10.3424Z" fill="black"/>
<path d="M196.816 10.3424H186.163V20.9951H196.816V10.3424Z" fill="black"/>
<path d="M217.501 10.3424H206.848V20.9951H217.501V10.3424Z" fill="black"/>
<path d="M134.762 20.6848H124.109V31.3375H134.762V20.6848Z" fill="black"/>
<path d="M155.447 20.6848H144.794V31.3375H155.447V20.6848Z" fill="black"/>
<path d="M165.789 20.6848H155.136V31.3375H165.789V20.6848Z" fill="black"/>
<path d="M93.3917 31.0272H82.739V41.6799H93.3917V31.0272Z" fill="black"/>
<path d="M103.734 31.0272H93.0814V41.6799H103.734V31.0272Z" fill="black"/>
<path d="M114.077 31.0272H103.424V41.6799H114.077V31.0272Z" fill="black"/>
<path d="M134.762 31.0272H124.109V41.6799H134.762V31.0272Z" fill="black"/>
<path d="M145.104 31.0272H134.451V41.6799H145.104V31.0272Z" fill="black"/>
<path d="M155.447 31.0272H144.794V41.6799H155.447V31.0272Z" fill="black"/>
<path d="M165.789 31.0272H155.136V41.6799H165.789V31.0272Z" fill="black"/>
<path d="M176.131 31.0272H165.478V41.6799H176.131V31.0272Z" fill="black"/>
<path d="M186.473 31.0272H175.821V41.6799H186.473V31.0272Z" fill="black"/>
<path d="M196.816 31.0272H186.163V41.6799H196.816V31.0272Z" fill="black"/>
<path d="M207.158 31.0272H196.505V41.6799H207.158V31.0272Z" fill="black"/>
<path d="M103.734 41.3696H93.0814V52.0223H103.734V41.3696Z" fill="black"/>
<path d="M176.131 41.3696H165.478V52.0223H176.131V41.3696Z" fill="black"/>
<path d="M186.473 41.3696H175.821V52.0223H186.473V41.3696Z" fill="black"/>
<path d="M196.816 41.3696H186.163V52.0223H196.816V41.3696Z" fill="black"/>
<path d="M207.158 41.3696H196.505V52.0223H207.158V41.3696Z" fill="black"/>
<path d="M217.501 41.3696H206.848V52.0223H217.501V41.3696Z" fill="black"/>
<path d="M93.3917 51.712H82.739V62.3647H93.3917V51.712Z" fill="black"/>
<path d="M103.734 51.712H93.0814V62.3647H103.734V51.712Z" fill="black"/>
<path d="M124.419 51.712H113.766V62.3647H124.419V51.712Z" fill="black"/>
<path d="M134.762 51.712H124.109V62.3647H134.762V51.712Z" fill="black"/>
<path d="M155.447 51.712H144.794V62.3647H155.447V51.712Z" fill="black"/>
<path d="M165.789 51.712H155.136V62.3647H165.789V51.712Z" fill="black"/>
<path d="M93.3917 62.0545H82.739V72.7072H93.3917V62.0545Z" fill="black"/>
<path d="M114.077 62.0545H103.424V72.7072H114.077V62.0545Z" fill="black"/>
<path d="M134.762 62.0545H124.109V72.7072H134.762V62.0545Z" fill="black"/>
<path d="M155.447 62.0545H144.794V72.7072H155.447V62.0545Z" fill="black"/>
<path d="M176.131 62.0545H165.478V72.7072H176.131V62.0545Z" fill="black"/>
<path d="M196.816 62.0545H186.163V72.7072H196.816V62.0545Z" fill="black"/>
<path d="M217.501 62.0545H206.848V72.7072H217.501V62.0545Z" fill="black"/>
<path d="M103.734 72.3969H93.0814V83.0495H103.734V72.3969Z" fill="black"/>
<path d="M114.077 72.3969H103.424V83.0495H114.077V72.3969Z" fill="black"/>
<path d="M124.419 72.3969H113.766V83.0495H124.419V72.3969Z" fill="black"/>
<path d="M165.789 72.3969H155.136V83.0495H165.789V72.3969Z" fill="black"/>
<path d="M207.158 72.3969H196.505V83.0495H207.158V72.3969Z" fill="black"/>
<path d="M217.501 72.3969H206.848V83.0495H217.501V72.3969Z" fill="black"/>
<path d="M10.6527 82.7392H0V93.3919H10.6527V82.7392Z" fill="black"/>
<path d="M20.9952 82.7392H10.3425V93.3919H20.9952V82.7392Z" fill="black"/>
<path d="M31.3377 82.7392H20.6851V93.3919H31.3377V82.7392Z" fill="black"/>
<path d="M41.68 82.7392H31.0273V93.3919H41.68V82.7392Z" fill="black"/>
<path d="M52.0226 82.7392H41.3699V93.3919H52.0226V82.7392Z" fill="black"/>
<path d="M72.7068 82.7392H62.0541V93.3919H72.7068V82.7392Z" fill="black"/>
<path d="M83.0493 82.7392H72.3966V93.3919H83.0493V82.7392Z" fill="black"/>
<path d="M93.3917 82.7392H82.739V93.3919H93.3917V82.7392Z" fill="black"/>
<path d="M103.734 82.7392H93.0814V93.3919H103.734V82.7392Z" fill="black"/>
<path d="M124.419 82.7392H113.766V93.3919H124.419V82.7392Z" fill="black"/>
<path d="M145.104 82.7392H134.451V93.3919H145.104V82.7392Z" fill="black"/>
<path d="M155.447 82.7392H144.794V93.3919H155.447V82.7392Z" fill="black"/>
<path d="M165.789 82.7392H155.136V93.3919H165.789V82.7392Z" fill="black"/>
<path d="M176.131 82.7392H165.478V93.3919H176.131V82.7392Z" fill="black"/>
<path d="M186.473 82.7392H175.821V93.3919H186.473V82.7392Z" fill="black"/>
<path d="M196.816 82.7392H186.163V93.3919H196.816V82.7392Z" fill="black"/>
<path d="M217.501 82.7392H206.848V93.3919H217.501V82.7392Z" fill="black"/>
<path d="M227.843 82.7392H217.19V93.3919H227.843V82.7392Z" fill="black"/>
<path d="M248.528 82.7392H237.875V93.3919H248.528V82.7392Z" fill="black"/>
<path d="M269.213 82.7392H258.56V93.3919H269.213V82.7392Z" fill="black"/>
<path d="M289.898 82.7392H279.245V93.3919H289.898V82.7392Z" fill="black"/>
<path d="M10.6527 93.0817H0V103.734H10.6527V93.0817Z" fill="black"/>
<path d="M20.9952 93.0817H10.3425V103.734H20.9952V93.0817Z" fill="black"/>
<path d="M31.3377 93.0817H20.6851V103.734H31.3377V93.0817Z" fill="black"/>
<path d="M52.0226 93.0817H41.3699V103.734H52.0226V93.0817Z" fill="black"/>
<path d="M83.0493 93.0817H72.3966V103.734H83.0493V93.0817Z" fill="black"/>
<path d="M93.3917 93.0817H82.739V103.734H93.3917V93.0817Z" fill="black"/>
<path d="M114.077 93.0817H103.424V103.734H114.077V93.0817Z" fill="black"/>
<path d="M134.762 93.0817H124.109V103.734H134.762V93.0817Z" fill="black"/>
<path d="M145.104 93.0817H134.451V103.734H145.104V93.0817Z" fill="black"/>
<path d="M176.131 93.0817H165.478V103.734H176.131V93.0817Z" fill="black"/>
<path d="M207.158 93.0817H196.505V103.734H207.158V93.0817Z" fill="black"/>
<path d="M217.501 93.0817H206.848V103.734H217.501V93.0817Z" fill="black"/>
<path d="M227.843 93.0817H217.19V103.734H227.843V93.0817Z" fill="black"/>
<path d="M238.186 93.0817H227.533V103.734H238.186V93.0817Z" fill="black"/>
<path d="M248.528 93.0817H237.875V103.734H248.528V93.0817Z" fill="black"/>
<path d="M258.871 93.0817H248.218V103.734H258.871V93.0817Z" fill="black"/>
<path d="M300.24 93.0817H289.587V103.734H300.24V93.0817Z" fill="black"/>
<path d="M10.6527 103.424H0V114.077H10.6527V103.424Z" fill="black"/>
<path d="M20.9952 103.424H10.3425V114.077H20.9952V103.424Z" fill="black"/>
<path d="M31.3377 103.424H20.6851V114.077H31.3377V103.424Z" fill="black"/>
<path d="M62.3651 103.424H51.7124V114.077H62.3651V103.424Z" fill="black"/>
<path d="M72.7068 103.424H62.0541V114.077H72.7068V103.424Z" fill="black"/>
<path d="M83.0493 103.424H72.3966V114.077H83.0493V103.424Z" fill="black"/>
<path d="M114.077 103.424H103.424V114.077H114.077V103.424Z" fill="black"/>
<path d="M165.789 103.424H155.136V114.077H165.789V103.424Z" fill="black"/>
<path d="M176.131 103.424H165.478V114.077H176.131V103.424Z" fill="black"/>
<path d="M186.473 103.424H175.821V114.077H186.473V103.424Z" fill="black"/>
<path d="M196.816 103.424H186.163V114.077H196.816V103.424Z" fill="black"/>
<path d="M217.501 103.424H206.848V114.077H217.501V103.424Z" fill="black"/>
<path d="M248.528 103.424H237.875V114.077H248.528V103.424Z" fill="black"/>
<path d="M258.871 103.424H248.218V114.077H258.871V103.424Z" fill="black"/>
<path d="M10.6527 113.766H0V124.419H10.6527V113.766Z" fill="black"/>
<path d="M31.3377 113.766H20.6851V124.419H31.3377V113.766Z" fill="black"/>
<path d="M41.68 113.766H31.0273V124.419H41.68V113.766Z" fill="black"/>
<path d="M52.0226 113.766H41.3699V124.419H52.0226V113.766Z" fill="black"/>
<path d="M93.3917 113.766H82.739V124.419H93.3917V113.766Z" fill="black"/>
<path d="M134.762 113.766H124.109V124.419H134.762V113.766Z" fill="black"/>
<path d="M155.447 113.766H144.794V124.419H155.447V113.766Z" fill="black"/>
<path d="M165.789 113.766H155.136V124.419H165.789V113.766Z" fill="black"/>
<path d="M196.816 113.766H186.163V124.419H196.816V113.766Z" fill="black"/>
<path d="M207.158 113.766H196.505V124.419H207.158V113.766Z" fill="black"/>
<path d="M217.501 113.766H206.848V124.419H217.501V113.766Z" fill="black"/>
<path d="M227.843 113.766H217.19V124.419H227.843V113.766Z" fill="black"/>
<path d="M258.871 113.766H248.218V124.419H258.871V113.766Z" fill="black"/>
<path d="M269.213 113.766H258.56V124.419H269.213V113.766Z" fill="black"/>
<path d="M289.898 113.766H279.245V124.419H289.898V113.766Z" fill="black"/>
<path d="M20.9952 124.109H10.3425V134.762H20.9952V124.109Z" fill="black"/>
<path d="M41.68 124.109H31.0273V134.762H41.68V124.109Z" fill="black"/>
<path d="M72.7068 124.109H62.0541V134.762H72.7068V124.109Z" fill="black"/>
<path d="M83.0493 124.109H72.3966V134.762H83.0493V124.109Z" fill="black"/>
<path d="M93.3917 124.109H82.739V134.762H93.3917V124.109Z" fill="black"/>
<path d="M103.734 124.109H93.0814V134.762H103.734V124.109Z" fill="black"/>
<path d="M114.077 124.109H103.424V134.762H114.077V124.109Z" fill="black"/>
<path d="M134.762 124.109H124.109V134.762H134.762V124.109Z" fill="black"/>
<path d="M145.104 124.109H134.451V134.762H145.104V124.109Z" fill="black"/>
<path d="M155.447 124.109H144.794V134.762H155.447V124.109Z" fill="black"/>
<path d="M165.789 124.109H155.136V134.762H165.789V124.109Z" fill="black"/>
<path d="M186.473 124.109H175.821V134.762H186.473V124.109Z" fill="black"/>
<path d="M196.816 124.109H186.163V134.762H196.816V124.109Z" fill="black"/>
<path d="M207.158 124.109H196.505V134.762H207.158V124.109Z" fill="black"/>
<path d="M269.213 124.109H258.56V134.762H269.213V124.109Z" fill="black"/>
<path d="M279.556 124.109H268.903V134.762H279.556V124.109Z" fill="black"/>
<path d="M10.6527 134.451H0V145.104H10.6527V134.451Z" fill="black"/>
<path d="M20.9952 134.451H10.3425V145.104H20.9952V134.451Z" fill="black"/>
<path d="M41.68 134.451H31.0273V145.104H41.68V134.451Z" fill="black"/>
<path d="M52.0226 134.451H41.3699V145.104H52.0226V134.451Z" fill="black"/>
<path d="M83.0493 134.451H72.3966V145.104H83.0493V134.451Z" fill="black"/>
<path d="M93.3917 134.451H82.739V145.104H93.3917V134.451Z" fill="black"/>
<path d="M155.447 134.451H144.794V145.104H155.447V134.451Z" fill="black"/>
<path d="M176.131 134.451H165.478V145.104H176.131V134.451Z" fill="black"/>
<path d="M186.473 134.451H175.821V145.104H186.473V134.451Z" fill="black"/>
<path d="M196.816 134.451H186.163V145.104H196.816V134.451Z" fill="black"/>
<path d="M207.158 134.451H196.505V145.104H207.158V134.451Z" fill="black"/>
<path d="M217.501 134.451H206.848V145.104H217.501V134.451Z" fill="black"/>
<path d="M227.843 134.451H217.19V145.104H227.843V134.451Z" fill="black"/>
<path d="M238.186 134.451H227.533V145.104H238.186V134.451Z" fill="black"/>
<path d="M248.528 134.451H237.875V145.104H248.528V134.451Z" fill="black"/>
<path d="M258.871 134.451H248.218V145.104H258.871V134.451Z" fill="black"/>
<path d="M300.24 134.451H289.587V145.104H300.24V134.451Z" fill="black"/>
<path d="M10.6527 144.794H0V155.446H10.6527V144.794Z" fill="black"/>
<path d="M52.0226 144.794H41.3699V155.446H52.0226V144.794Z" fill="black"/>
<path d="M72.7068 144.794H62.0541V155.446H72.7068V144.794Z" fill="black"/>
<path d="M83.0493 144.794H72.3966V155.446H83.0493V144.794Z" fill="black"/>
<path d="M114.077 144.794H103.424V155.446H114.077V144.794Z" fill="black"/>
<path d="M124.419 144.794H113.766V155.446H124.419V144.794Z" fill="black"/>
<path d="M134.762 144.794H124.109V155.446H134.762V144.794Z" fill="black"/>
<path d="M145.104 144.794H134.451V155.446H145.104V144.794Z" fill="black"/>
<path d="M165.789 144.794H155.136V155.446H165.789V144.794Z" fill="black"/>
<path d="M186.473 144.794H175.821V155.446H186.473V144.794Z" fill="black"/>
<path d="M217.501 144.794H206.848V155.446H217.501V144.794Z" fill="black"/>
<path d="M238.186 144.794H227.533V155.446H238.186V144.794Z" fill="black"/>
<path d="M269.213 144.794H258.56V155.446H269.213V144.794Z" fill="black"/>
<path d="M279.556 144.794H268.903V155.446H279.556V144.794Z" fill="black"/>
<path d="M10.6527 155.136H0V165.789H10.6527V155.136Z" fill="black"/>
<path d="M31.3377 155.136H20.6851V165.789H31.3377V155.136Z" fill="black"/>
<path d="M41.68 155.136H31.0273V165.789H41.68V155.136Z" fill="black"/>
<path d="M52.0226 155.136H41.3699V165.789H52.0226V155.136Z" fill="black"/>
<path d="M62.3651 155.136H51.7124V165.789H62.3651V155.136Z" fill="black"/>
<path d="M83.0493 155.136H72.3966V165.789H83.0493V155.136Z" fill="black"/>
<path d="M103.734 155.136H93.0814V165.789H103.734V155.136Z" fill="black"/>
<path d="M114.077 155.136H103.424V165.789H114.077V155.136Z" fill="black"/>
<path d="M124.419 155.136H113.766V165.789H124.419V155.136Z" fill="black"/>
<path d="M176.131 155.136H165.478V165.789H176.131V155.136Z" fill="black"/>
<path d="M196.816 155.136H186.163V165.789H196.816V155.136Z" fill="black"/>
<path d="M207.158 155.136H196.505V165.789H207.158V155.136Z" fill="black"/>
<path d="M248.528 155.136H237.875V165.789H248.528V155.136Z" fill="black"/>
<path d="M289.898 155.136H279.245V165.789H289.898V155.136Z" fill="black"/>
<path d="M41.68 165.479H31.0273V176.131H41.68V165.479Z" fill="black"/>
<path d="M62.3651 165.479H51.7124V176.131H62.3651V165.479Z" fill="black"/>
<path d="M72.7068 165.479H62.0541V176.131H72.7068V165.479Z" fill="black"/>
<path d="M103.734 165.479H93.0814V176.131H103.734V165.479Z" fill="black"/>
<path d="M114.077 165.479H103.424V176.131H114.077V165.479Z" fill="black"/>
<path d="M124.419 165.479H113.766V176.131H124.419V165.479Z" fill="black"/>
<path d="M186.473 165.479H175.821V176.131H186.473V165.479Z" fill="black"/>
<path d="M207.158 165.479H196.505V176.131H207.158V165.479Z" fill="black"/>
<path d="M269.213 165.479H258.56V176.131H269.213V165.479Z" fill="black"/>
<path d="M279.556 165.479H268.903V176.131H279.556V165.479Z" fill="black"/>
<path d="M10.6527 175.821H0V186.474H10.6527V175.821Z" fill="black"/>
<path d="M31.3377 175.821H20.6851V186.474H31.3377V175.821Z" fill="black"/>
<path d="M83.0493 175.821H72.3966V186.474H83.0493V175.821Z" fill="black"/>
<path d="M134.762 175.821H124.109V186.474H134.762V175.821Z" fill="black"/>
<path d="M145.104 175.821H134.451V186.474H145.104V175.821Z" fill="black"/>
<path d="M207.158 175.821H196.505V186.474H207.158V175.821Z" fill="black"/>
<path d="M217.501 175.821H206.848V186.474H217.501V175.821Z" fill="black"/>
<path d="M227.843 175.821H217.19V186.474H227.843V175.821Z" fill="black"/>
<path d="M238.186 175.821H227.533V186.474H238.186V175.821Z" fill="black"/>
<path d="M248.528 175.821H237.875V186.474H248.528V175.821Z" fill="black"/>
<path d="M258.871 175.821H248.218V186.474H258.871V175.821Z" fill="black"/>
<path d="M279.556 175.821H268.903V186.474H279.556V175.821Z" fill="black"/>
<path d="M300.24 175.821H289.587V186.474H300.24V175.821Z" fill="black"/>
<path d="M10.6527 186.163H0V196.816H10.6527V186.163Z" fill="black"/>
<path d="M31.3377 186.163H20.6851V196.816H31.3377V186.163Z" fill="black"/>
<path d="M52.0226 186.163H41.3699V196.816H52.0226V186.163Z" fill="black"/>
<path d="M62.3651 186.163H51.7124V196.816H62.3651V186.163Z" fill="black"/>
<path d="M72.7068 186.163H62.0541V196.816H72.7068V186.163Z" fill="black"/>
<path d="M114.077 186.163H103.424V196.816H114.077V186.163Z" fill="black"/>
<path d="M145.104 186.163H134.451V196.816H145.104V186.163Z" fill="black"/>
<path d="M155.447 186.163H144.794V196.816H155.447V186.163Z" fill="black"/>
<path d="M165.789 186.163H155.136V196.816H165.789V186.163Z" fill="black"/>
<path d="M186.473 186.163H175.821V196.816H186.473V186.163Z" fill="black"/>
<path d="M227.843 186.163H217.19V196.816H227.843V186.163Z" fill="black"/>
<path d="M248.528 186.163H237.875V196.816H248.528V186.163Z" fill="black"/>
<path d="M258.871 186.163H248.218V196.816H258.871V186.163Z" fill="black"/>
<path d="M279.556 186.163H268.903V196.816H279.556V186.163Z" fill="black"/>
<path d="M10.6527 196.506H0V207.158H10.6527V196.506Z" fill="black"/>
<path d="M31.3377 196.506H20.6851V207.158H31.3377V196.506Z" fill="black"/>
<path d="M41.68 196.506H31.0273V207.158H41.68V196.506Z" fill="black"/>
<path d="M83.0493 196.506H72.3966V207.158H83.0493V196.506Z" fill="black"/>
<path d="M93.3917 196.506H82.739V207.158H93.3917V196.506Z" fill="black"/>
<path d="M103.734 196.506H93.0814V207.158H103.734V196.506Z" fill="black"/>
<path d="M134.762 196.506H124.109V207.158H134.762V196.506Z" fill="black"/>
<path d="M145.104 196.506H134.451V207.158H145.104V196.506Z" fill="black"/>
<path d="M165.789 196.506H155.136V207.158H165.789V196.506Z" fill="black"/>
<path d="M176.131 196.506H165.478V207.158H176.131V196.506Z" fill="black"/>
<path d="M196.816 196.506H186.163V207.158H196.816V196.506Z" fill="black"/>
<path d="M207.158 196.506H196.505V207.158H207.158V196.506Z" fill="black"/>
<path d="M217.501 196.506H206.848V207.158H217.501V196.506Z" fill="black"/>
<path d="M248.528 196.506H237.875V207.158H248.528V196.506Z" fill="black"/>
<path d="M258.871 196.506H248.218V207.158H258.871V196.506Z" fill="black"/>
<path d="M289.898 196.506H279.245V207.158H289.898V196.506Z" fill="black"/>
<path d="M10.6527 206.848H0V217.501H10.6527V206.848Z" fill="black"/>
<path d="M41.68 206.848H31.0273V217.501H41.68V206.848Z" fill="black"/>
<path d="M52.0226 206.848H41.3699V217.501H52.0226V206.848Z" fill="black"/>
<path d="M72.7068 206.848H62.0541V217.501H72.7068V206.848Z" fill="black"/>
<path d="M83.0493 206.848H72.3966V217.501H83.0493V206.848Z" fill="black"/>
<path d="M93.3917 206.848H82.739V217.501H93.3917V206.848Z" fill="black"/>
<path d="M134.762 206.848H124.109V217.501H134.762V206.848Z" fill="black"/>
<path d="M155.447 206.848H144.794V217.501H155.447V206.848Z" fill="black"/>
<path d="M186.473 206.848H175.821V217.501H186.473V206.848Z" fill="black"/>
<path d="M207.158 206.848H196.505V217.501H207.158V206.848Z" fill="black"/>
<path d="M217.501 206.848H206.848V217.501H217.501V206.848Z" fill="black"/>
<path d="M227.843 206.848H217.19V217.501H227.843V206.848Z" fill="black"/>
<path d="M238.186 206.848H227.533V217.501H238.186V206.848Z" fill="black"/>
<path d="M248.528 206.848H237.875V217.501H248.528V206.848Z" fill="black"/>
<path d="M258.871 206.848H248.218V217.501H258.871V206.848Z" fill="black"/>
<path d="M279.556 206.848H268.903V217.501H279.556V206.848Z" fill="black"/>
<path d="M289.898 206.848H279.245V217.501H289.898V206.848Z" fill="black"/>
<path d="M300.24 206.848H289.587V217.501H300.24V206.848Z" fill="black"/>
<path d="M93.3917 217.19H82.739V227.843H93.3917V217.19Z" fill="black"/>
<path d="M176.131 217.19H165.478V227.843H176.131V217.19Z" fill="black"/>
<path d="M196.816 217.19H186.163V227.843H196.816V217.19Z" fill="black"/>
<path d="M217.501 217.19H206.848V227.843H217.501V217.19Z" fill="black"/>
<path d="M258.871 217.19H248.218V227.843H258.871V217.19Z" fill="black"/>
<path d="M269.213 217.19H258.56V227.843H269.213V217.19Z" fill="black"/>
<path d="M279.556 217.19H268.903V227.843H279.556V217.19Z" fill="black"/>
<path d="M289.898 217.19H279.245V227.843H289.898V217.19Z" fill="black"/>
<path d="M300.24 217.19H289.587V227.843H300.24V217.19Z" fill="black"/>
<path d="M93.3917 227.533H82.739V238.186H93.3917V227.533Z" fill="black"/>
<path d="M114.077 227.533H103.424V238.186H114.077V227.533Z" fill="black"/>
<path d="M124.419 227.533H113.766V238.186H124.419V227.533Z" fill="black"/>
<path d="M134.762 227.533H124.109V238.186H134.762V227.533Z" fill="black"/>
<path d="M165.789 227.533H155.136V238.186H165.789V227.533Z" fill="black"/>
<path d="M176.131 227.533H165.478V238.186H176.131V227.533Z" fill="black"/>
<path d="M207.158 227.533H196.505V238.186H207.158V227.533Z" fill="black"/>
<path d="M217.501 227.533H206.848V238.186H217.501V227.533Z" fill="black"/>
<path d="M238.186 227.533H227.533V238.186H238.186V227.533Z" fill="black"/>
<path d="M258.871 227.533H248.218V238.186H258.871V227.533Z" fill="black"/>
<path d="M269.213 227.533H258.56V238.186H269.213V227.533Z" fill="black"/>
<path d="M279.556 227.533H268.903V238.186H279.556V227.533Z" fill="black"/>
<path d="M103.734 237.875H93.0814V248.528H103.734V237.875Z" fill="black"/>
<path d="M114.077 237.875H103.424V248.528H114.077V237.875Z" fill="black"/>
<path d="M124.419 237.875H113.766V248.528H124.419V237.875Z" fill="black"/>
<path d="M155.447 237.875H144.794V248.528H155.447V237.875Z" fill="black"/>
<path d="M165.789 237.875H155.136V248.528H165.789V237.875Z" fill="black"/>
<path d="M176.131 237.875H165.478V248.528H176.131V237.875Z" fill="black"/>
<path d="M207.158 237.875H196.505V248.528H207.158V237.875Z" fill="black"/>
<path d="M217.501 237.875H206.848V248.528H217.501V237.875Z" fill="black"/>
<path d="M258.871 237.875H248.218V248.528H258.871V237.875Z" fill="black"/>
<path d="M289.898 237.875H279.245V248.528H289.898V237.875Z" fill="black"/>
<path d="M93.3917 248.218H82.739V258.87H93.3917V248.218Z" fill="black"/>
<path d="M103.734 248.218H93.0814V258.87H103.734V248.218Z" fill="black"/>
<path d="M114.077 248.218H103.424V258.87H114.077V248.218Z" fill="black"/>
<path d="M124.419 248.218H113.766V258.87H124.419V248.218Z" fill="black"/>
<path d="M165.789 248.218H155.136V258.87H165.789V248.218Z" fill="black"/>
<path d="M186.473 248.218H175.821V258.87H186.473V248.218Z" fill="black"/>
<path d="M217.501 248.218H206.848V258.87H217.501V248.218Z" fill="black"/>
<path d="M227.843 248.218H217.19V258.87H227.843V248.218Z" fill="black"/>
<path d="M238.186 248.218H227.533V258.87H238.186V248.218Z" fill="black"/>
<path d="M248.528 248.218H237.875V258.87H248.528V248.218Z" fill="black"/>
<path d="M258.871 248.218H248.218V258.87H258.871V248.218Z" fill="black"/>
<path d="M279.556 248.218H268.903V258.87H279.556V248.218Z" fill="black"/>
<path d="M289.898 248.218H279.245V258.87H289.898V248.218Z" fill="black"/>
<path d="M300.24 248.218H289.587V258.87H300.24V248.218Z" fill="black"/>
<path d="M93.3917 258.56H82.739V269.213H93.3917V258.56Z" fill="black"/>
<path d="M114.077 258.56H103.424V269.213H114.077V258.56Z" fill="black"/>
<path d="M134.762 258.56H124.109V269.213H134.762V258.56Z" fill="black"/>
<path d="M145.104 258.56H134.451V269.213H145.104V258.56Z" fill="black"/>
<path d="M155.447 258.56H144.794V269.213H155.447V258.56Z" fill="black"/>
<path d="M176.131 258.56H165.478V269.213H176.131V258.56Z" fill="black"/>
<path d="M207.158 258.56H196.505V269.213H207.158V258.56Z" fill="black"/>
<path d="M269.213 258.56H258.56V269.213H269.213V258.56Z" fill="black"/>
<path d="M279.556 258.56H268.903V269.213H279.556V258.56Z" fill="black"/>
<path d="M289.898 258.56H279.245V269.213H289.898V258.56Z" fill="black"/>
<path d="M300.24 258.56H289.587V269.213H300.24V258.56Z" fill="black"/>
<path d="M93.3917 268.902H82.739V279.555H93.3917V268.902Z" fill="black"/>
<path d="M114.077 268.902H103.424V279.555H114.077V268.902Z" fill="black"/>
<path d="M145.104 268.902H134.451V279.555H145.104V268.902Z" fill="black"/>
<path d="M155.447 268.902H144.794V279.555H155.447V268.902Z" fill="black"/>
<path d="M165.789 268.902H155.136V279.555H165.789V268.902Z" fill="black"/>
<path d="M176.131 268.902H165.478V279.555H176.131V268.902Z" fill="black"/>
<path d="M186.473 268.902H175.821V279.555H186.473V268.902Z" fill="black"/>
<path d="M196.816 268.902H186.163V279.555H196.816V268.902Z" fill="black"/>
<path d="M217.501 268.902H206.848V279.555H217.501V268.902Z" fill="black"/>
<path d="M238.186 268.902H227.533V279.555H238.186V268.902Z" fill="black"/>
<path d="M248.528 268.902H237.875V279.555H248.528V268.902Z" fill="black"/>
<path d="M258.871 268.902H248.218V279.555H258.871V268.902Z" fill="black"/>
<path d="M269.213 268.902H258.56V279.555H269.213V268.902Z" fill="black"/>
<path d="M279.556 268.902H268.903V279.555H279.556V268.902Z" fill="black"/>
<path d="M289.898 268.902H279.245V279.555H289.898V268.902Z" fill="black"/>
<path d="M93.3917 279.245H82.739V289.898H93.3917V279.245Z" fill="black"/>
<path d="M114.077 279.245H103.424V289.898H114.077V279.245Z" fill="black"/>
<path d="M134.762 279.245H124.109V289.898H134.762V279.245Z" fill="black"/>
<path d="M145.104 279.245H134.451V289.898H145.104V279.245Z" fill="black"/>
<path d="M196.816 279.245H186.163V289.898H196.816V279.245Z" fill="black"/>
<path d="M217.501 279.245H206.848V289.898H217.501V279.245Z" fill="black"/>
<path d="M227.843 279.245H217.19V289.898H227.843V279.245Z" fill="black"/>
<path d="M269.213 279.245H258.56V289.898H269.213V279.245Z" fill="black"/>
<path d="M289.898 279.245H279.245V289.898H289.898V279.245Z" fill="black"/>
<path d="M93.3917 289.587H82.739V300.24H93.3917V289.587Z" fill="black"/>
<path d="M103.734 289.587H93.0814V300.24H103.734V289.587Z" fill="black"/>
<path d="M114.077 289.587H103.424V300.24H114.077V289.587Z" fill="black"/>
<path d="M134.762 289.587H124.109V300.24H134.762V289.587Z" fill="black"/>
<path d="M155.447 289.587H144.794V300.24H155.447V289.587Z" fill="black"/>
<path d="M165.789 289.587H155.136V300.24H165.789V289.587Z" fill="black"/>
<path d="M186.473 289.587H175.821V300.24H186.473V289.587Z" fill="black"/>
<path d="M207.158 289.587H196.505V300.24H207.158V289.587Z" fill="black"/>
<path d="M227.843 289.587H217.19V300.24H227.843V289.587Z" fill="black"/>
<path d="M238.186 289.587H227.533V300.24H238.186V289.587Z" fill="black"/>
<path d="M248.528 289.587H237.875V300.24H248.528V289.587Z" fill="black"/>
<path d="M279.556 289.587H268.903V300.24H279.556V289.587Z" fill="black"/>
<path d="M0 0V72.3968H72.3968V0H0ZM62.0544 62.0544H10.3424V10.3424H62.0544V62.0544Z" fill="black"/>
<path d="M227.533 0V72.3968H299.93V0H227.533ZM289.587 62.0544H237.875V10.3424H289.587V62.0544Z" fill="black"/>
<path d="M0 227.533V299.93H72.3968V227.533H0ZM62.0544 289.587H10.3424V237.875H62.0544V289.587Z" fill="black"/>
<path d="M51.7123 20.6848H20.6851V51.712H51.7123V20.6848Z" fill="black"/>
<path d="M279.245 20.6848H248.218V51.712H279.245V20.6848Z" fill="black"/>
<path d="M51.7123 248.218H20.6851V279.245H51.7123V248.218Z" fill="black"/>
</svg>
